<?xml version="1.0" standalone="no"?>
<!DOCTYPE svg PUBLIC "-//W3C//DTD SVG 1.1//EN" "http://www.w3.org/Graphics/SVG/1.1/DTD/svg11.dtd" >
<svg xmlns="http://www.w3.org/2000/svg" xmlns:xlink="http://www.w3.org/1999/xlink" version="1.1">
<metadata>
Created by FontForge 20170731 at Sat Oct 29 01:34:44 2016
 By Aleksey,,,
Copyright (C) 2001, 2010 Hoefler &#38; Co. http://www.typography.com
</metadata>
<defs>
<font id="GothamSSm-Medium" horiz-adv-x="528" >
  <font-face 
    font-family="Gotham SSm Medium"
    font-weight="350"
    font-stretch="normal"
    units-per-em="1000"
    panose-1="0 0 0 0 0 0 0 0 0 0"
    ascent="800"
    descent="-200"
    x-height="548"
    cap-height="728"
    bbox="-23 -279 1125 1005"
    underline-thickness="50"
    underline-position="-200"
    unicode-range="U+0020-2122"
  />
<missing-glyph horiz-adv-x="500" 
d="M0 800h500v-1000h-500v1000zM250 360l179 390h-358zM222 300l-172 376v-752zM278 300l172 -376v752zM71 -150h358l-179 390z" />
    <glyph glyph-name=".notdef" horiz-adv-x="500" 
d="M0 800h500v-1000h-500v1000zM250 360l179 390h-358zM222 300l-172 376v-752zM278 300l172 -376v752zM71 -150h358l-179 390z" />
    <glyph glyph-name=".null" horiz-adv-x="0" 
 />
    <glyph glyph-name="nonmarkingreturn" horiz-adv-x="320" 
 />
    <glyph glyph-name="space" unicode=" " horiz-adv-x="320" 
 />
    <glyph glyph-name="exclam" unicode="!" horiz-adv-x="319" 
d="M89 689v39h141v-39l-37 -461h-67zM93 139h133v-139h-133v139z" />
    <glyph glyph-name="quotedbl" unicode="&#x22;" horiz-adv-x="509" 
d="M317 728h137v-5l-99 -303h-63zM92 728h137v-5l-99 -303h-63z" />
    <glyph glyph-name="numbersign" unicode="#" horiz-adv-x="736" 
d="M652 169h-125l-29 -169h-106l28 169h-173l-29 -169h-106l29 169h-96v104h113l32 186h-106v104h124l28 165h107l-28 -165h173l29 165h106l-28 -165h95v-104h-113l-32 -186h107v-104zM263 270h177l33 192h-177z" />
    <glyph glyph-name="dollar" unicode="$" horiz-adv-x="675" 
d="M528 553q-35 26 -71 43t-72 25v-206q118 -29 172 -79t53 -133v-2q0 -43 -16 -78t-45 -61t-70 -42t-90 -20v-102h-88v104q-69 8 -130.5 34.5t-114.5 69.5l64 91q45 -37 89 -60.5t96 -31.5v212q-57 15 -99 33.5t-69 43.5t-40.5 57.5t-13.5 76.5v2q0 42 16 76.5t44.5 60
t68.5 41t89 19.5v61h88v-63q57 -7 104.5 -27t91.5 -52zM493 196q0 35 -22.5 59t-85.5 43v-197q52 5 80 29.5t28 63.5v2zM200 536q0 -17 4.5 -31.5t16 -26.5t32 -22.5t52.5 -20.5v192q-51 -5 -78.5 -30t-26.5 -60v-1z" />
    <glyph glyph-name="percent" unicode="%" horiz-adv-x="889" 
d="M224 364q-38 0 -69 14.5t-53.5 40t-35 58.5t-12.5 71v2q0 38 12.5 71.5t35 59t54.5 40.5t70 15t69.5 -14.5t54 -40t34.5 -59t12 -70.5v-2q0 -38 -12.5 -71.5t-35 -59t-54 -40.5t-70.5 -15zM224 659q-37 0 -58.5 -31.5t-21.5 -75.5v-2q0 -23 6 -42.5t17 -34.5t26 -23.5
t33 -8.5q38 0 59 31.5t21 75.5v2q0 45 -23 77t-59 32zM661 728h100l-287 -387l-246 -341h-100l286 386zM663 -8q-38 0 -69.5 14.5t-54 40t-34.5 58.5t-12 71v2q0 38 12.5 71.5t35 59t54 40.5t70.5 15q38 0 69.5 -14.5t54 -40t34.5 -59t12 -70.5v-2q0 -38 -12.5 -71.5
t-35 -59t-54 -40.5t-70.5 -15zM665 69q38 0 59 31.5t21 75.5v2q0 22 -6 42t-17 35t-26 23.5t-33 8.5q-38 0 -59 -31.5t-21 -75.5v-2q0 -46 23 -77.5t59 -31.5z" />
    <glyph glyph-name="ampersand" unicode="&#x26;" horiz-adv-x="732" 
d="M507 86q-48 -45 -103 -70.5t-122 -25.5q-51 0 -94 14.5t-75 41.5t-50 65.5t-18 85.5v2q0 71 41 121.5t117 82.5q-32 41 -47 77t-15 76v2q0 37 14.5 70t41 58t65 39.5t86.5 14.5q43 0 78 -13.5t60.5 -37t39.5 -55.5t14 -68v-2q0 -36 -11.5 -64.5t-32.5 -52t-51 -41.5
t-67 -31l130 -132q21 32 40.5 67.5t38.5 75.5l93 -49q-23 -45 -47 -87.5t-53 -80.5l117 -118l-91 -66zM313 441q58 20 87.5 48t29.5 68v2q0 38 -23.5 61t-61.5 23q-40 0 -65 -25t-25 -64v-2q0 -28 13 -52t45 -59zM294 91q40 0 75.5 18t67.5 49l-166 170q-54 -23 -78 -56
t-24 -68v-2q0 -49 35 -80t90 -31z" />
    <glyph glyph-name="quotesingle" unicode="'" horiz-adv-x="285" 
d="M92 728h139v-5l-100 -303h-64z" />
    <glyph glyph-name="parenleft" unicode="(" horiz-adv-x="465" 
d="M358 -147q-143 78 -215.5 188t-72.5 257v1q0 146 72.5 256.5t215.5 188.5l53 -81q-56 -37 -97.5 -76.5t-68.5 -84t-40.5 -95t-13.5 -109.5v-1q0 -116 54 -202.5t166 -160.5z" />
    <glyph glyph-name="parenright" unicode=")" horiz-adv-x="465" 
d="M55 -66q111 74 165.5 160.5t54.5 203.5v1q0 116 -54.5 203t-165.5 161l53 81q142 -78 215 -188t73 -258v-1q0 -146 -73 -256t-215 -188z" />
    <glyph glyph-name="asterisk" unicode="*" horiz-adv-x="455" 
d="M206 527l-104 -77l-36 63l118 52l-118 52l36 62l104 -76l-14 127h71l-14 -127l104 76l36 -62l-118 -52l118 -52l-36 -63l-104 77l14 -128h-71z" />
    <glyph glyph-name="plus" unicode="+" horiz-adv-x="666" 
d="M276 311h-201v110h201v200h114v-200h202v-110h-202v-200h-114v200z" />
    <glyph glyph-name="comma" unicode="," horiz-adv-x="285" 
d="M41 -97q93 19 87 97h-52v139h133v-118q0 -84 -39.5 -123t-115.5 -46z" />
    <glyph glyph-name="hyphen" unicode="-" horiz-adv-x="432" 
d="M63 377h306v-119h-306v119z" />
    <glyph glyph-name="period" unicode="." horiz-adv-x="285" 
d="M76 139h133v-139h-133v139z" />
    <glyph glyph-name="slash" unicode="/" horiz-adv-x="548" 
d="M450 830h105l-471 -963h-105z" />
    <glyph glyph-name="zero" unicode="0" horiz-adv-x="760" 
d="M379 -12q-72 0 -130 29t-99 80t-63.5 119t-22.5 146v2q0 78 22.5 146.5t64 119.5t100 80.5t130.5 29.5q71 0 129 -29t99.5 -80t64 -119t22.5 -146v-2q0 -78 -22.5 -146.5t-64 -119.5t-100 -80.5t-130.5 -29.5zM381 99q43 0 78 20.5t59.5 56.5t37.5 84t13 102v2
q0 54 -13.5 102.5t-38.5 84.5t-60 57t-78 21t-78 -20.5t-59.5 -56t-37.5 -83.5t-13 -103v-2q0 -54 13.5 -102.5t38 -84.5t59.5 -57t79 -21z" />
    <glyph glyph-name="one" unicode="1" horiz-adv-x="415" 
d="M189 608l-131 -37l-27 100l194 62h86v-733h-122v608z" />
    <glyph glyph-name="two" unicode="2" horiz-adv-x="644" 
d="M55 97l252 215q38 33 64 59t42.5 49t24 45t7.5 47q0 55 -35 85.5t-86 30.5q-52 0 -90.5 -27.5t-80.5 -82.5l-87 68q26 36 52.5 64.5t58 48t70 29.5t86.5 10q53 0 96.5 -15.5t75 -44t49 -68.5t17.5 -88v-2q0 -43 -11 -77.5t-34.5 -66.5t-59 -65t-83.5 -73l-155 -130h351
v-108h-524v97z" />
    <glyph glyph-name="three" unicode="3" horiz-adv-x="650" 
d="M327 -12q-95 0 -163 35t-115 92l87 80q39 -47 85.5 -72t107.5 -25q56 0 93 31t37 83v2q0 56 -47 85.5t-125 29.5h-57l-21 77l201 215h-320v107h479v-92l-206 -213q42 -5 81.5 -18.5t70 -38t48.5 -61t18 -86.5v-2q0 -50 -18.5 -92t-52 -72.5t-80.5 -47.5t-103 -17z" />
    <glyph glyph-name="four" unicode="4" horiz-adv-x="715" 
d="M435 164h-369l-24 88l406 481h105v-468h105v-101h-105v-164h-118v164zM435 265v298l-247 -298h247z" />
    <glyph glyph-name="five" unicode="5" horiz-adv-x="654" 
d="M320 -12q-83 0 -149 30.5t-117 81.5l76 88q45 -42 91.5 -65.5t97.5 -23.5q68 0 108 35.5t40 94.5v2q0 28 -11.5 51.5t-31.5 39.5t-48.5 25t-62.5 9q-40 0 -73.5 -10t-62.5 -24l-75 49l21 357h434v-109h-328l-12 -178q26 10 53.5 16t65.5 6q53 0 99 -14.5t80.5 -43t54 -71
t19.5 -99.5v-2q0 -56 -19.5 -101t-55 -77t-85 -49.5t-109.5 -17.5z" />
    <glyph glyph-name="six" unicode="6" horiz-adv-x="689" 
d="M354 -12q-66 0 -115.5 19.5t-86.5 56.5q-21 21 -37 46t-27.5 58.5t-17.5 76t-6 97.5v2q0 84 20 156t59 125.5t97 84t135 30.5q70 0 122 -21.5t100 -59.5l-67 -95q-38 31 -74.5 48t-85.5 17q-48 0 -82 -22.5t-55.5 -58t-31.5 -78.5t-11 -83h1q32 35 75 57t103 21
q52 0 98.5 -15.5t81 -44.5t54.5 -71.5t20 -96.5v-2q0 -54 -20.5 -99.5t-56.5 -78.5t-85.5 -51t-106.5 -18zM351 94q35 0 62.5 10.5t47 28.5t29.5 42.5t10 53.5v2q0 57 -41 94t-110 37q-35 0 -63.5 -10.5t-48 -28.5t-30 -42t-10.5 -51v-2q0 -29 11 -53.5t31.5 -42.5t48.5 -28
t63 -10z" />
    <glyph glyph-name="seven" unicode="7" horiz-adv-x="640" 
d="M445 620h-370v108h509v-92l-328 -636h-138z" />
    <glyph glyph-name="eight" unicode="8" horiz-adv-x="663" 
d="M332 -10q-60 0 -110.5 15t-88 42t-58.5 65.5t-21 85.5v2q0 66 35.5 109t97.5 68q-46 25 -77 63.5t-31 99.5v2q0 42 19.5 78t53 62t80 41t100.5 15t100 -14.5t80 -41t53 -62.5t19 -78v-2q0 -61 -30.5 -99.5t-77.5 -63.5q60 -26 96.5 -67.5t36.5 -106.5v-2q0 -49 -21 -88
t-58 -66.5t-88 -42t-110 -14.5zM332 419q58 0 95.5 30.5t37.5 78.5v3q0 21 -9.5 40t-27 33.5t-42 22.5t-54.5 8t-54.5 -8t-42.5 -22t-27.5 -33t-9.5 -41v-2q0 -24 10 -44t28 -35t42.5 -23t53.5 -8zM332 93q74 0 115 32.5t41 79.5v2q0 25 -12 46t-33 36t-49.5 23t-61.5 8
t-62 -8t-50 -23t-33 -36t-12 -46v-2q0 -46 41 -79t116 -33z" />
    <glyph glyph-name="nine" unicode="9" horiz-adv-x="689" 
d="M318 99q49 0 83.5 22.5t56 57.5t32 77t10.5 81h-1q-32 -36 -74.5 -58.5t-101.5 -21.5q-58 0 -105.5 16.5t-81 46.5t-52 72.5t-18.5 94.5v2q0 54 19.5 99.5t55.5 79.5t85.5 53t109.5 19q69 0 116 -19.5t85 -57.5q20 -20 36.5 -45.5t28 -59t17.5 -76.5t6 -97v-2
q0 -87 -21 -160t-61 -125t-97.5 -81t-130.5 -29q-76 0 -131 24.5t-101 62.5l66 94q42 -35 81.5 -52.5t87.5 -17.5zM341 360q35 0 63.5 11t48 29.5t30 43t10.5 51.5v2q0 29 -11 54t-31.5 43.5t-49.5 29t-64 10.5t-62.5 -11t-46.5 -29.5t-29 -44t-10 -54.5v-2q0 -29 11 -53.5
t30.5 -42t47.5 -27.5t63 -10z" />
    <glyph glyph-name="colon" unicode=":" horiz-adv-x="295" 
d="M81 548h133v-139h-133v139zM81 139h133v-139h-133v139z" />
    <glyph glyph-name="semicolon" unicode=";" horiz-adv-x="295" 
d="M81 548h133v-139h-133v139zM46 -97q93 19 87 97h-52v139h133v-118q0 -84 -39 -123t-116 -46z" />
    <glyph glyph-name="less" unicode="&#x3c;" horiz-adv-x="666" 
d="M73 312v108l496 231v-115l-375 -169l375 -170v-116z" />
    <glyph glyph-name="equal" unicode="=" horiz-adv-x="666" 
d="M84 551h499v-112h-499v112zM84 293h499v-112h-499v112z" />
    <glyph glyph-name="greater" unicode="&#x3e;" horiz-adv-x="666" 
d="M97 196l376 169l-376 170v116l496 -231v-108l-496 -231v115z" />
    <glyph glyph-name="question" unicode="?" horiz-adv-x="570" 
d="M200 396l5 5q101 4 147.5 35t46.5 85v2q0 45 -32.5 74t-89.5 29q-51 0 -92.5 -21.5t-79.5 -62.5l-75 79q45 52 105 84t145 32q54 0 99 -15t76.5 -42.5t49 -66.5t17.5 -87v-2q0 -49 -16.5 -85t-45 -61.5t-67 -41t-81.5 -22.5l-11 -86h-80zM192 139h134v-139h-134v139z" />
    <glyph glyph-name="at" unicode="@" horiz-adv-x="1027" 
d="M523 -168q-100 0 -185 36t-147 97.5t-97 144t-35 175.5t35.5 176t97 145t144.5 98t179 36q95 0 178 -34t144 -91t96 -131t35 -155q0 -66 -16.5 -114.5t-44.5 -80.5t-64 -47.5t-76 -15.5q-60 0 -98 22t-55 52q-29 -30 -68 -52t-94 -22q-39 0 -73.5 13.5t-60 39t-40 61.5
t-14.5 81q0 55 20 102.5t53 82.5t75.5 55t87.5 20q57 0 92 -23.5t56 -54.5l12 63l97 -15l-45 -259q-2 -14 -3.5 -26.5t-1.5 -20.5q0 -34 21.5 -54.5t60.5 -20.5q28 0 53 13.5t44 40t30 66.5t11 94q0 72 -31.5 139t-86.5 119t-130.5 83.5t-163.5 31.5q-89 0 -165 -33
t-131.5 -89.5t-87 -132.5t-31.5 -162t31.5 -162t87.5 -132t133.5 -88.5t170.5 -32.5q78 0 137.5 17.5t119.5 52.5l19 -30q-61 -37 -128 -57.5t-148 -20.5zM479 157q26 0 50.5 11t43.5 31q23 23 37.5 55.5t14.5 70.5q0 51 -31.5 82.5t-79.5 31.5q-56 0 -97 -43
q-23 -23 -36.5 -54.5t-13.5 -69.5q0 -55 31 -85t81 -30z" />
    <glyph glyph-name="A" unicode="A" horiz-adv-x="830" 
d="M358 733h114l321 -733h-129l-76 177h-350l-76 -177h-126zM543 287l-130 300l-130 -300h260z" />
    <glyph glyph-name="A" unicode="&#x1fa;" horiz-adv-x="830" 
d="M358 733h114l321 -733h-129l-76 177h-350l-76 -177h-126zM543 287l-130 300l-130 -300h260z" />
    <glyph glyph-name="A" unicode="&#x104;" horiz-adv-x="830" 
d="M358 733h114l321 -733h-129l-76 177h-350l-76 -177h-126zM543 287l-130 300l-130 -300h260z" />
    <glyph glyph-name="A" unicode="&#x102;" horiz-adv-x="830" 
d="M358 733h114l321 -733h-129l-76 177h-350l-76 -177h-126zM543 287l-130 300l-130 -300h260z" />
    <glyph glyph-name="A" unicode="&#x100;" horiz-adv-x="830" 
d="M358 733h114l321 -733h-129l-76 177h-350l-76 -177h-126zM543 287l-130 300l-130 -300h260z" />
    <glyph glyph-name="B" unicode="B" horiz-adv-x="759" 
d="M99 728h325q62 0 110 -16.5t79 -47.5q49 -49 49 -121v-2q0 -33 -9 -58.5t-23.5 -45.5t-33.5 -34.5t-39 -24.5q32 -11 58.5 -26t46 -36t30.5 -49.5t11 -65.5v-2q0 -48 -19.5 -85.5t-54.5 -62.5t-84.5 -38t-110.5 -13h-335v728zM540 524q0 45 -34.5 70t-97.5 25h-189v-200
h180q63 0 102 25.5t39 77.5v2zM580 214q0 48 -38 74.5t-116 26.5h-207v-206h216q68 0 106.5 26t38.5 77v2z" />
    <glyph glyph-name="C" unicode="C" horiz-adv-x="777" 
d="M436 -12q-80 0 -147.5 29t-117 79.5t-77.5 119t-28 146.5v2q0 78 28 146.5t77.5 119.5t118.5 80.5t151 29.5q50 0 91 -8t75.5 -23t63.5 -36t55 -46l-80 -91q-44 42 -93 66.5t-113 24.5q-53 0 -98 -20.5t-77.5 -55.5t-51 -83t-18.5 -102v-2q0 -55 18.5 -103t51 -83.5
t77.5 -56t98 -20.5q68 0 116.5 25t95.5 70l79 -80q-29 -29 -59.5 -53t-65.5 -40.5t-77 -25.5t-93 -9z" />
    <glyph glyph-name="C" unicode="&#x10c;" horiz-adv-x="777" 
d="M436 -12q-80 0 -147.5 29t-117 79.5t-77.5 119t-28 146.5v2q0 78 28 146.5t77.5 119.5t118.5 80.5t151 29.5q50 0 91 -8t75.5 -23t63.5 -36t55 -46l-80 -91q-44 42 -93 66.5t-113 24.5q-53 0 -98 -20.5t-77.5 -55.5t-51 -83t-18.5 -102v-2q0 -55 18.5 -103t51 -83.5
t77.5 -56t98 -20.5q68 0 116.5 25t95.5 70l79 -80q-29 -29 -59.5 -53t-65.5 -40.5t-77 -25.5t-93 -9z" />
    <glyph glyph-name="C" unicode="&#x10a;" horiz-adv-x="777" 
d="M436 -12q-80 0 -147.5 29t-117 79.5t-77.5 119t-28 146.5v2q0 78 28 146.5t77.5 119.5t118.5 80.5t151 29.5q50 0 91 -8t75.5 -23t63.5 -36t55 -46l-80 -91q-44 42 -93 66.5t-113 24.5q-53 0 -98 -20.5t-77.5 -55.5t-51 -83t-18.5 -102v-2q0 -55 18.5 -103t51 -83.5
t77.5 -56t98 -20.5q68 0 116.5 25t95.5 70l79 -80q-29 -29 -59.5 -53t-65.5 -40.5t-77 -25.5t-93 -9z" />
    <glyph glyph-name="C" unicode="&#x106;" horiz-adv-x="777" 
d="M436 -12q-80 0 -147.5 29t-117 79.5t-77.5 119t-28 146.5v2q0 78 28 146.5t77.5 119.5t118.5 80.5t151 29.5q50 0 91 -8t75.5 -23t63.5 -36t55 -46l-80 -91q-44 42 -93 66.5t-113 24.5q-53 0 -98 -20.5t-77.5 -55.5t-51 -83t-18.5 -102v-2q0 -55 18.5 -103t51 -83.5
t77.5 -56t98 -20.5q68 0 116.5 25t95.5 70l79 -80q-29 -29 -59.5 -53t-65.5 -40.5t-77 -25.5t-93 -9z" />
    <glyph glyph-name="D" unicode="D" horiz-adv-x="821" 
d="M99 728h269q86 0 157 -27.5t122 -76.5t79.5 -115t28.5 -143v-2q0 -77 -28.5 -143.5t-79.5 -115.5t-122 -77t-157 -28h-269v728zM222 617v-506h146q58 0 106 19t81.5 52.5t52 79.5t18.5 100v2q0 54 -18.5 100.5t-52 80t-81.5 53t-106 19.5h-146z" />
    <glyph glyph-name="D" unicode="&#x110;" horiz-adv-x="821" 
d="M99 728h269q86 0 157 -27.5t122 -76.5t79.5 -115t28.5 -143v-2q0 -77 -28.5 -143.5t-79.5 -115.5t-122 -77t-157 -28h-269v728zM222 617v-506h146q58 0 106 19t81.5 52.5t52 79.5t18.5 100v2q0 54 -18.5 100.5t-52 80t-81.5 53t-106 19.5h-146z" />
    <glyph glyph-name="D" unicode="&#x10e;" horiz-adv-x="821" 
d="M99 728h269q86 0 157 -27.5t122 -76.5t79.5 -115t28.5 -143v-2q0 -77 -28.5 -143.5t-79.5 -115.5t-122 -77t-157 -28h-269v728zM222 617v-506h146q58 0 106 19t81.5 52.5t52 79.5t18.5 100v2q0 54 -18.5 100.5t-52 80t-81.5 53t-106 19.5h-146z" />
    <glyph glyph-name="E" unicode="E" horiz-adv-x="705" 
d="M99 728h538v-110h-416v-196h369v-110h-369v-202h421v-110h-543v728z" />
    <glyph glyph-name="F" unicode="F" horiz-adv-x="690" 
d="M99 728h539v-112h-416v-205h370v-112h-370v-299h-123v728z" />
    <glyph glyph-name="G" unicode="G" horiz-adv-x="823" 
d="M443 -12q-86 0 -155.5 28.5t-118.5 79t-76 118.5t-27 148v2q0 76 27.5 144.5t77 120t118.5 81.5t151 30q95 0 159.5 -25.5t120.5 -72.5l-78 -93q-43 36 -89.5 57t-116.5 21q-52 0 -96 -21t-76.5 -56.5t-50.5 -83t-18 -100.5v-2q0 -57 18 -105.5t51 -84t79.5 -55.5
t103.5 -20q54 0 100 15.5t80 41.5v141h-190v108h309v-304q-54 -47 -130.5 -80t-172.5 -33z" />
    <glyph glyph-name="G" unicode="&#x122;" horiz-adv-x="823" 
d="M443 -12q-86 0 -155.5 28.5t-118.5 79t-76 118.5t-27 148v2q0 76 27.5 144.5t77 120t118.5 81.5t151 30q95 0 159.5 -25.5t120.5 -72.5l-78 -93q-43 36 -89.5 57t-116.5 21q-52 0 -96 -21t-76.5 -56.5t-50.5 -83t-18 -100.5v-2q0 -57 18 -105.5t51 -84t79.5 -55.5
t103.5 -20q54 0 100 15.5t80 41.5v141h-190v108h309v-304q-54 -47 -130.5 -80t-172.5 -33z" />
    <glyph glyph-name="G" unicode="&#x120;" horiz-adv-x="823" 
d="M443 -12q-86 0 -155.5 28.5t-118.5 79t-76 118.5t-27 148v2q0 76 27.5 144.5t77 120t118.5 81.5t151 30q95 0 159.5 -25.5t120.5 -72.5l-78 -93q-43 36 -89.5 57t-116.5 21q-52 0 -96 -21t-76.5 -56.5t-50.5 -83t-18 -100.5v-2q0 -57 18 -105.5t51 -84t79.5 -55.5
t103.5 -20q54 0 100 15.5t80 41.5v141h-190v108h309v-304q-54 -47 -130.5 -80t-172.5 -33z" />
    <glyph glyph-name="G" unicode="&#x11e;" horiz-adv-x="823" 
d="M443 -12q-86 0 -155.5 28.5t-118.5 79t-76 118.5t-27 148v2q0 76 27.5 144.5t77 120t118.5 81.5t151 30q95 0 159.5 -25.5t120.5 -72.5l-78 -93q-43 36 -89.5 57t-116.5 21q-52 0 -96 -21t-76.5 -56.5t-50.5 -83t-18 -100.5v-2q0 -57 18 -105.5t51 -84t79.5 -55.5
t103.5 -20q54 0 100 15.5t80 41.5v141h-190v108h309v-304q-54 -47 -130.5 -80t-172.5 -33z" />
    <glyph glyph-name="H" unicode="H" horiz-adv-x="798" 
d="M99 728h123v-305h355v305h123v-728h-123v309h-355v-309h-123v728z" />
    <glyph glyph-name="I" unicode="I" horiz-adv-x="335" 
d="M106 728h123v-728h-123v728z" />
    <glyph glyph-name="J" unicode="J" horiz-adv-x="589" 
d="M259 -10q-84 0 -140 34t-92 84l81 83q32 -42 66.5 -65t82.5 -23q54 0 86.5 36t32.5 111v478h126v-481q0 -65 -18 -113t-50 -80t-76.5 -48t-98.5 -16z" />
    <glyph glyph-name="K" unicode="K" horiz-adv-x="762" 
d="M99 728h123v-374l353 374h153l-304 -313l317 -415h-150l-251 330l-118 -121v-209h-123v728z" />
    <glyph glyph-name="K" unicode="&#x136;" horiz-adv-x="762" 
d="M99 728h123v-374l353 374h153l-304 -313l317 -415h-150l-251 330l-118 -121v-209h-123v728z" />
    <glyph glyph-name="L" unicode="L" horiz-adv-x="650" 
d="M99 728h123v-616h385v-112h-508v728z" />
    <glyph glyph-name="L" unicode="&#x13f;" horiz-adv-x="650" 
d="M99 728h123v-616h385v-112h-508v728z" />
    <glyph glyph-name="L" unicode="&#x13d;" horiz-adv-x="650" 
d="M99 728h123v-616h385v-112h-508v728z" />
    <glyph glyph-name="L" unicode="&#x13b;" horiz-adv-x="650" 
d="M99 728h123v-616h385v-112h-508v728z" />
    <glyph glyph-name="L" unicode="&#x139;" horiz-adv-x="650" 
d="M99 728h123v-616h385v-112h-508v728z" />
    <glyph glyph-name="M" unicode="M" horiz-adv-x="911" 
d="M99 728h130l226 -351l227 351h130v-728h-122v530l-234 -349h-4l-233 347v-528h-120v728z" />
    <glyph glyph-name="N" unicode="N" horiz-adv-x="830" 
d="M99 728h113l398 -513v513h121v-728h-103l-408 527v-527h-121v728z" />
    <glyph glyph-name="O" unicode="O" horiz-adv-x="892" 
d="M445 -12q-84 0 -153.5 29.5t-119.5 80.5t-78 119t-28 145v2q0 76 28 144.5t78.5 120t120.5 81.5t154 30t153.5 -30t119.5 -81t78 -119t28 -144v-2q0 -77 -28 -145t-78.5 -119.5t-120.5 -81.5t-154 -30zM447 101q55 0 101 20.5t79 56t51.5 83t18.5 101.5v2q0 54 -18.5 102
t-52 83.5t-80 56.5t-101.5 21t-101 -20.5t-79 -56t-51.5 -83t-18.5 -101.5v-2q0 -54 18.5 -102t52 -83.5t80 -56.5t101.5 -21z" />
    <glyph glyph-name="O" unicode="&#x1fe;" horiz-adv-x="892" 
d="M445 -12q-84 0 -153.5 29.5t-119.5 80.5t-78 119t-28 145v2q0 76 28 144.5t78.5 120t120.5 81.5t154 30t153.5 -30t119.5 -81t78 -119t28 -144v-2q0 -77 -28 -145t-78.5 -119.5t-120.5 -81.5t-154 -30zM447 101q55 0 101 20.5t79 56t51.5 83t18.5 101.5v2q0 54 -18.5 102
t-52 83.5t-80 56.5t-101.5 21t-101 -20.5t-79 -56t-51.5 -83t-18.5 -101.5v-2q0 -54 18.5 -102t52 -83.5t80 -56.5t101.5 -21z" />
    <glyph glyph-name="O" unicode="&#x150;" horiz-adv-x="892" 
d="M445 -12q-84 0 -153.5 29.5t-119.5 80.5t-78 119t-28 145v2q0 76 28 144.5t78.5 120t120.5 81.5t154 30t153.5 -30t119.5 -81t78 -119t28 -144v-2q0 -77 -28 -145t-78.5 -119.5t-120.5 -81.5t-154 -30zM447 101q55 0 101 20.5t79 56t51.5 83t18.5 101.5v2q0 54 -18.5 102
t-52 83.5t-80 56.5t-101.5 21t-101 -20.5t-79 -56t-51.5 -83t-18.5 -101.5v-2q0 -54 18.5 -102t52 -83.5t80 -56.5t101.5 -21z" />
    <glyph glyph-name="O" unicode="&#x14e;" horiz-adv-x="892" 
d="M445 -12q-84 0 -153.5 29.5t-119.5 80.5t-78 119t-28 145v2q0 76 28 144.5t78.5 120t120.5 81.5t154 30t153.5 -30t119.5 -81t78 -119t28 -144v-2q0 -77 -28 -145t-78.5 -119.5t-120.5 -81.5t-154 -30zM447 101q55 0 101 20.5t79 56t51.5 83t18.5 101.5v2q0 54 -18.5 102
t-52 83.5t-80 56.5t-101.5 21t-101 -20.5t-79 -56t-51.5 -83t-18.5 -101.5v-2q0 -54 18.5 -102t52 -83.5t80 -56.5t101.5 -21z" />
    <glyph glyph-name="O" unicode="&#x14c;" horiz-adv-x="892" 
d="M445 -12q-84 0 -153.5 29.5t-119.5 80.5t-78 119t-28 145v2q0 76 28 144.5t78.5 120t120.5 81.5t154 30t153.5 -30t119.5 -81t78 -119t28 -144v-2q0 -77 -28 -145t-78.5 -119.5t-120.5 -81.5t-154 -30zM447 101q55 0 101 20.5t79 56t51.5 83t18.5 101.5v2q0 54 -18.5 102
t-52 83.5t-80 56.5t-101.5 21t-101 -20.5t-79 -56t-51.5 -83t-18.5 -101.5v-2q0 -54 18.5 -102t52 -83.5t80 -56.5t101.5 -21z" />
    <glyph glyph-name="P" unicode="P" horiz-adv-x="703" 
d="M99 728h285q63 0 114 -17.5t87 -49t55.5 -76t19.5 -98.5v-3q0 -61 -23 -107.5t-62.5 -77.5t-92 -46.5t-112.5 -15.5h-148v-237h-123v728zM374 347q75 0 118.5 37.5t43.5 96.5v2q0 66 -44 100t-118 34h-152v-270h152z" />
    <glyph glyph-name="Q" unicode="Q" horiz-adv-x="892" 
d="M756 -22l-88 79q-47 -32 -103 -50.5t-120 -18.5q-84 0 -153.5 29.5t-119.5 80.5t-78 119t-28 145v2q0 76 28 144.5t78.5 120t120.5 81.5t154 30t153.5 -30t119.5 -81t78 -119t28 -144v-2q0 -63 -20 -120.5t-55 -105.5l84 -72zM447 101q37 0 69.5 9t60.5 26l-127 109
l80 90l129 -117q18 31 28 67t10 77v2q0 54 -18.5 102t-52 83.5t-80 56.5t-101.5 21t-101 -20.5t-79 -56t-51.5 -83t-18.5 -101.5v-2q0 -54 18.5 -102t52 -83.5t80 -56.5t101.5 -21z" />
    <glyph glyph-name="R" unicode="R" horiz-adv-x="760" 
d="M99 728h323q69 0 122 -19t88 -54q59 -59 59 -156v-2q0 -90 -49 -144t-127 -75l200 -278h-146l-182 257h-165v-257h-123v728zM413 366q70 0 112 34t42 91v2q0 60 -41 92t-114 32h-190v-251h191z" />
    <glyph glyph-name="R" unicode="&#x158;" horiz-adv-x="760" 
d="M99 728h323q69 0 122 -19t88 -54q59 -59 59 -156v-2q0 -90 -49 -144t-127 -75l200 -278h-146l-182 257h-165v-257h-123v728zM413 366q70 0 112 34t42 91v2q0 60 -41 92t-114 32h-190v-251h191z" />
    <glyph glyph-name="R" unicode="&#x156;" horiz-adv-x="760" 
d="M99 728h323q69 0 122 -19t88 -54q59 -59 59 -156v-2q0 -90 -49 -144t-127 -75l200 -278h-146l-182 257h-165v-257h-123v728zM413 366q70 0 112 34t42 91v2q0 60 -41 92t-114 32h-190v-251h191z" />
    <glyph glyph-name="R" unicode="&#x154;" horiz-adv-x="760" 
d="M99 728h323q69 0 122 -19t88 -54q59 -59 59 -156v-2q0 -90 -49 -144t-127 -75l200 -278h-146l-182 257h-165v-257h-123v728zM413 366q70 0 112 34t42 91v2q0 60 -41 92t-114 32h-190v-251h191z" />
    <glyph glyph-name="S" unicode="S" horiz-adv-x="674" 
d="M353 -10q-85 0 -161 28.5t-142 87.5l74 88q53 -46 108 -70.5t124 -24.5q61 0 97 26t36 69v2q0 20 -7 35.5t-25.5 29t-51 25.5t-83.5 24q-59 14 -104.5 31t-76 41.5t-46.5 59.5t-16 85v2q0 46 18.5 84.5t51 66t78 43t99.5 15.5q81 0 144.5 -23t119.5 -68l-67 -93
q-98 75 -199 75q-58 0 -90.5 -25.5t-32.5 -63.5v-2q0 -22 7.5 -38.5t27.5 -30t54 -25.5t88 -24q58 -14 101.5 -32t73 -43t44 -58.5t14.5 -78.5v-2q0 -51 -19 -91t-53.5 -67.5t-81.5 -42.5t-104 -15z" />
    <glyph glyph-name="S" unicode="&#x218;" horiz-adv-x="674" 
d="M353 -10q-85 0 -161 28.5t-142 87.5l74 88q53 -46 108 -70.5t124 -24.5q61 0 97 26t36 69v2q0 20 -7 35.5t-25.5 29t-51 25.5t-83.5 24q-59 14 -104.5 31t-76 41.5t-46.5 59.5t-16 85v2q0 46 18.5 84.5t51 66t78 43t99.5 15.5q81 0 144.5 -23t119.5 -68l-67 -93
q-98 75 -199 75q-58 0 -90.5 -25.5t-32.5 -63.5v-2q0 -22 7.5 -38.5t27.5 -30t54 -25.5t88 -24q58 -14 101.5 -32t73 -43t44 -58.5t14.5 -78.5v-2q0 -51 -19 -91t-53.5 -67.5t-81.5 -42.5t-104 -15z" />
    <glyph glyph-name="S" unicode="&#x15e;" horiz-adv-x="674" 
d="M353 -10q-85 0 -161 28.5t-142 87.5l74 88q53 -46 108 -70.5t124 -24.5q61 0 97 26t36 69v2q0 20 -7 35.5t-25.5 29t-51 25.5t-83.5 24q-59 14 -104.5 31t-76 41.5t-46.5 59.5t-16 85v2q0 46 18.5 84.5t51 66t78 43t99.5 15.5q81 0 144.5 -23t119.5 -68l-67 -93
q-98 75 -199 75q-58 0 -90.5 -25.5t-32.5 -63.5v-2q0 -22 7.5 -38.5t27.5 -30t54 -25.5t88 -24q58 -14 101.5 -32t73 -43t44 -58.5t14.5 -78.5v-2q0 -51 -19 -91t-53.5 -67.5t-81.5 -42.5t-104 -15z" />
    <glyph glyph-name="S" unicode="&#x15a;" horiz-adv-x="674" 
d="M353 -10q-85 0 -161 28.5t-142 87.5l74 88q53 -46 108 -70.5t124 -24.5q61 0 97 26t36 69v2q0 20 -7 35.5t-25.5 29t-51 25.5t-83.5 24q-59 14 -104.5 31t-76 41.5t-46.5 59.5t-16 85v2q0 46 18.5 84.5t51 66t78 43t99.5 15.5q81 0 144.5 -23t119.5 -68l-67 -93
q-98 75 -199 75q-58 0 -90.5 -25.5t-32.5 -63.5v-2q0 -22 7.5 -38.5t27.5 -30t54 -25.5t88 -24q58 -14 101.5 -32t73 -43t44 -58.5t14.5 -78.5v-2q0 -51 -19 -91t-53.5 -67.5t-81.5 -42.5t-104 -15z" />
    <glyph glyph-name="T" unicode="T" horiz-adv-x="678" 
d="M278 615h-233v113h588v-113h-232v-615h-123v615z" />
    <glyph glyph-name="T" unicode="&#x21a;" horiz-adv-x="678" 
d="M278 615h-233v113h588v-113h-232v-615h-123v615z" />
    <glyph glyph-name="T" unicode="&#x164;" horiz-adv-x="678" 
d="M278 615h-233v113h588v-113h-232v-615h-123v615z" />
    <glyph glyph-name="T" unicode="&#x162;" horiz-adv-x="678" 
d="M278 615h-233v113h588v-113h-232v-615h-123v615z" />
    <glyph glyph-name="U" unicode="U" horiz-adv-x="796" 
d="M396 -11q-71 0 -128 20.5t-97 60.5t-62 100t-22 139v419h123v-415q0 -103 50 -157t139 -54q87 0 136.5 51.5t49.5 154.5v420h123v-414q0 -81 -22 -142t-63 -101.5t-98.5 -61t-128.5 -20.5z" />
    <glyph glyph-name="U" unicode="&#x172;" horiz-adv-x="796" 
d="M396 -11q-71 0 -128 20.5t-97 60.5t-62 100t-22 139v419h123v-415q0 -103 50 -157t139 -54q87 0 136.5 51.5t49.5 154.5v420h123v-414q0 -81 -22 -142t-63 -101.5t-98.5 -61t-128.5 -20.5z" />
    <glyph glyph-name="U" unicode="&#x170;" horiz-adv-x="796" 
d="M396 -11q-71 0 -128 20.5t-97 60.5t-62 100t-22 139v419h123v-415q0 -103 50 -157t139 -54q87 0 136.5 51.5t49.5 154.5v420h123v-414q0 -81 -22 -142t-63 -101.5t-98.5 -61t-128.5 -20.5z" />
    <glyph glyph-name="U" unicode="&#x16e;" horiz-adv-x="796" 
d="M396 -11q-71 0 -128 20.5t-97 60.5t-62 100t-22 139v419h123v-415q0 -103 50 -157t139 -54q87 0 136.5 51.5t49.5 154.5v420h123v-414q0 -81 -22 -142t-63 -101.5t-98.5 -61t-128.5 -20.5z" />
    <glyph glyph-name="U" unicode="&#x16c;" horiz-adv-x="796" 
d="M396 -11q-71 0 -128 20.5t-97 60.5t-62 100t-22 139v419h123v-415q0 -103 50 -157t139 -54q87 0 136.5 51.5t49.5 154.5v420h123v-414q0 -81 -22 -142t-63 -101.5t-98.5 -61t-128.5 -20.5z" />
    <glyph glyph-name="U" unicode="&#x16a;" horiz-adv-x="796" 
d="M396 -11q-71 0 -128 20.5t-97 60.5t-62 100t-22 139v419h123v-415q0 -103 50 -157t139 -54q87 0 136.5 51.5t49.5 154.5v420h123v-414q0 -81 -22 -142t-63 -101.5t-98.5 -61t-128.5 -20.5z" />
    <glyph glyph-name="V" unicode="V" horiz-adv-x="788" 
d="M36 728h136l224 -568l224 568h132l-304 -733h-108z" />
    <glyph glyph-name="W" unicode="W" horiz-adv-x="1168" 
d="M42 728h133l178 -547l181 549h104l181 -549l178 547h128l-254 -733h-106l-181 531l-182 -531h-105z" />
    <glyph glyph-name="W" unicode="&#x1e84;" horiz-adv-x="1168" 
d="M42 728h133l178 -547l181 549h104l181 -549l178 547h128l-254 -733h-106l-181 531l-182 -531h-105z" />
    <glyph glyph-name="W" unicode="&#x1e82;" horiz-adv-x="1168" 
d="M42 728h133l178 -547l181 549h104l181 -549l178 547h128l-254 -733h-106l-181 531l-182 -531h-105z" />
    <glyph glyph-name="W" unicode="&#x1e80;" horiz-adv-x="1168" 
d="M42 728h133l178 -547l181 549h104l181 -549l178 547h128l-254 -733h-106l-181 531l-182 -531h-105z" />
    <glyph glyph-name="W" unicode="&#x174;" horiz-adv-x="1168" 
d="M42 728h133l178 -547l181 549h104l181 -549l178 547h128l-254 -733h-106l-181 531l-182 -531h-105z" />
    <glyph glyph-name="X" unicode="X" horiz-adv-x="766" 
d="M712 728l-256 -356l266 -372h-144l-197 282l-197 -282h-140l265 370l-255 358h144l186 -267l187 267h141z" />
    <glyph glyph-name="Y" unicode="Y" horiz-adv-x="753" 
d="M315 287l-291 441h145l208 -327l211 327h141l-291 -438v-290h-123v287z" />
    <glyph glyph-name="Y" unicode="&#x1ef2;" horiz-adv-x="753" 
d="M315 287l-291 441h145l208 -327l211 327h141l-291 -438v-290h-123v287z" />
    <glyph glyph-name="Y" unicode="&#x176;" horiz-adv-x="753" 
d="M315 287l-291 441h145l208 -327l211 327h141l-291 -438v-290h-123v287z" />
    <glyph glyph-name="Z" unicode="Z" horiz-adv-x="737" 
d="M71 90l435 530h-420v108h581v-90l-435 -530h435v-108h-596v90z" />
    <glyph glyph-name="Z" unicode="&#x17b;" horiz-adv-x="737" 
d="M71 90l435 530h-420v108h581v-90l-435 -530h435v-108h-596v90z" />
    <glyph glyph-name="Z" unicode="&#x179;" horiz-adv-x="737" 
d="M71 90l435 530h-420v108h581v-90l-435 -530h435v-108h-596v90z" />
    <glyph glyph-name="bracketleft" unicode="[" horiz-adv-x="479" 
d="M96 728h318v-94h-203v-675h203v-94h-318v863z" />
    <glyph glyph-name="backslash" unicode="\" horiz-adv-x="548" 
d="M-7 830h105l472 -963h-105z" />
    <glyph glyph-name="bracketright" unicode="]" horiz-adv-x="479" 
d="M65 -41h203v675h-203v94h318v-863h-318v94z" />
    <glyph glyph-name="underscore" unicode="_" horiz-adv-x="632" 
d="M2 -72h628v-94h-628v94z" />
    <glyph glyph-name="grave" unicode="`" 
d="M136 737l110 50l107 -168h-91z" />
    <glyph glyph-name="a" unicode="a" horiz-adv-x="617" 
d="M243 -11q-39 0 -74.5 11t-62.5 32.5t-43 53t-16 72.5v2q0 44 16.5 77t46.5 55t72 33t92 11q47 0 82.5 -6t67.5 -17v14q0 60 -35.5 91.5t-103.5 31.5q-47 0 -83.5 -9t-74.5 -25l-32 94q45 20 93 32.5t113 12.5q61 0 106.5 -16t74.5 -45q30 -29 44 -71.5t14 -96.5v-326
h-117v70q-28 -34 -72 -57.5t-108 -23.5zM275 77q32 0 59.5 9t48 24.5t32 37.5t11.5 49v40q-25 9 -57.5 15.5t-71.5 6.5q-63 0 -97.5 -25t-34.5 -69v-2q0 -42 32 -64t78 -22z" />
    <glyph glyph-name="a" unicode="&#x1fb;" horiz-adv-x="617" 
d="M243 -11q-39 0 -74.5 11t-62.5 32.5t-43 53t-16 72.5v2q0 44 16.5 77t46.5 55t72 33t92 11q47 0 82.5 -6t67.5 -17v14q0 60 -35.5 91.5t-103.5 31.5q-47 0 -83.5 -9t-74.5 -25l-32 94q45 20 93 32.5t113 12.5q61 0 106.5 -16t74.5 -45q30 -29 44 -71.5t14 -96.5v-326
h-117v70q-28 -34 -72 -57.5t-108 -23.5zM275 77q32 0 59.5 9t48 24.5t32 37.5t11.5 49v40q-25 9 -57.5 15.5t-71.5 6.5q-63 0 -97.5 -25t-34.5 -69v-2q0 -42 32 -64t78 -22z" />
    <glyph glyph-name="a" unicode="&#x105;" horiz-adv-x="617" 
d="M243 -11q-39 0 -74.5 11t-62.5 32.5t-43 53t-16 72.5v2q0 44 16.5 77t46.5 55t72 33t92 11q47 0 82.5 -6t67.5 -17v14q0 60 -35.5 91.5t-103.5 31.5q-47 0 -83.5 -9t-74.5 -25l-32 94q45 20 93 32.5t113 12.5q61 0 106.5 -16t74.5 -45q30 -29 44 -71.5t14 -96.5v-326
h-117v70q-28 -34 -72 -57.5t-108 -23.5zM275 77q32 0 59.5 9t48 24.5t32 37.5t11.5 49v40q-25 9 -57.5 15.5t-71.5 6.5q-63 0 -97.5 -25t-34.5 -69v-2q0 -42 32 -64t78 -22z" />
    <glyph glyph-name="a" unicode="&#x103;" horiz-adv-x="617" 
d="M243 -11q-39 0 -74.5 11t-62.5 32.5t-43 53t-16 72.5v2q0 44 16.5 77t46.5 55t72 33t92 11q47 0 82.5 -6t67.5 -17v14q0 60 -35.5 91.5t-103.5 31.5q-47 0 -83.5 -9t-74.5 -25l-32 94q45 20 93 32.5t113 12.5q61 0 106.5 -16t74.5 -45q30 -29 44 -71.5t14 -96.5v-326
h-117v70q-28 -34 -72 -57.5t-108 -23.5zM275 77q32 0 59.5 9t48 24.5t32 37.5t11.5 49v40q-25 9 -57.5 15.5t-71.5 6.5q-63 0 -97.5 -25t-34.5 -69v-2q0 -42 32 -64t78 -22z" />
    <glyph glyph-name="a" unicode="&#x101;" horiz-adv-x="617" 
d="M243 -11q-39 0 -74.5 11t-62.5 32.5t-43 53t-16 72.5v2q0 44 16.5 77t46.5 55t72 33t92 11q47 0 82.5 -6t67.5 -17v14q0 60 -35.5 91.5t-103.5 31.5q-47 0 -83.5 -9t-74.5 -25l-32 94q45 20 93 32.5t113 12.5q61 0 106.5 -16t74.5 -45q30 -29 44 -71.5t14 -96.5v-326
h-117v70q-28 -34 -72 -57.5t-108 -23.5zM275 77q32 0 59.5 9t48 24.5t32 37.5t11.5 49v40q-25 9 -57.5 15.5t-71.5 6.5q-63 0 -97.5 -25t-34.5 -69v-2q0 -42 32 -64t78 -22z" />
    <glyph glyph-name="b" unicode="b" horiz-adv-x="705" 
d="M394 -11q-69 0 -114.5 29.5t-75.5 68.5v-87h-120v759h120v-305q31 44 76.5 74.5t113.5 30.5q48 0 94 -19t82 -55t57.5 -89t21.5 -121v-2q0 -68 -21.5 -121t-57 -89t-81.5 -55t-95 -19zM366 93q33 0 62.5 12.5t51 36t34.5 56.5t13 75v2q0 41 -13 74t-35 56.5t-51 36.5
t-62 13t-62.5 -13t-52 -36.5t-36 -57t-13.5 -73.5v-2q0 -41 13.5 -74t36 -56.5t52 -36.5t62.5 -13z" />
    <glyph glyph-name="c" unicode="c" horiz-adv-x="602" 
d="M337 -12q-61 0 -113 22.5t-89.5 61t-59 90t-21.5 109.5v2q0 58 21.5 110t59 91t89.5 62t114 23q77 0 129 -26.5t90 -68.5l-76 -81q-29 31 -62.5 51t-81.5 20q-35 0 -65 -14t-52 -38.5t-34 -57t-12 -69.5v-2q0 -38 12.5 -70.5t35 -57t53.5 -38.5t68 -14q45 0 79.5 19
t65.5 50l73 -71q-41 -45 -93 -74t-131 -29z" />
    <glyph glyph-name="c" unicode="&#x10d;" horiz-adv-x="602" 
d="M337 -12q-61 0 -113 22.5t-89.5 61t-59 90t-21.5 109.5v2q0 58 21.5 110t59 91t89.5 62t114 23q77 0 129 -26.5t90 -68.5l-76 -81q-29 31 -62.5 51t-81.5 20q-35 0 -65 -14t-52 -38.5t-34 -57t-12 -69.5v-2q0 -38 12.5 -70.5t35 -57t53.5 -38.5t68 -14q45 0 79.5 19
t65.5 50l73 -71q-41 -45 -93 -74t-131 -29z" />
    <glyph glyph-name="c" unicode="&#x10b;" horiz-adv-x="602" 
d="M337 -12q-61 0 -113 22.5t-89.5 61t-59 90t-21.5 109.5v2q0 58 21.5 110t59 91t89.5 62t114 23q77 0 129 -26.5t90 -68.5l-76 -81q-29 31 -62.5 51t-81.5 20q-35 0 -65 -14t-52 -38.5t-34 -57t-12 -69.5v-2q0 -38 12.5 -70.5t35 -57t53.5 -38.5t68 -14q45 0 79.5 19
t65.5 50l73 -71q-41 -45 -93 -74t-131 -29z" />
    <glyph glyph-name="c" unicode="&#x107;" horiz-adv-x="602" 
d="M337 -12q-61 0 -113 22.5t-89.5 61t-59 90t-21.5 109.5v2q0 58 21.5 110t59 91t89.5 62t114 23q77 0 129 -26.5t90 -68.5l-76 -81q-29 31 -62.5 51t-81.5 20q-35 0 -65 -14t-52 -38.5t-34 -57t-12 -69.5v-2q0 -38 12.5 -70.5t35 -57t53.5 -38.5t68 -14q45 0 79.5 19
t65.5 50l73 -71q-41 -45 -93 -74t-131 -29z" />
    <glyph glyph-name="d" unicode="d" horiz-adv-x="705" 
d="M311 -11q-48 0 -94 19t-82 55t-57.5 89t-21.5 121v2q0 68 21.5 121t57 89t81.5 55t95 19q69 0 114.5 -29.5t74.5 -68.5v298h121v-759h-121v94q-15 -22 -34 -41t-42 -33.5t-51 -22.5t-62 -8zM339 93q33 0 62.5 13t52 36.5t36 56.5t13.5 74v2q0 40 -13.5 73.5t-36 57
t-52 36.5t-62.5 13t-62.5 -12.5t-51 -36t-34.5 -56.5t-13 -75v-2q0 -41 13 -74t35 -56.5t51 -36.5t62 -13z" />
    <glyph glyph-name="e" unicode="e" horiz-adv-x="635" 
d="M334 -12q-59 0 -110.5 20.5t-89 58t-59 90t-21.5 115.5v2q0 59 20 111t55 90.5t84 61t108 22.5q65 0 114 -23.5t81.5 -64t49 -94t16.5 -112.5v-16q0 -9 -1 -18h-406q10 -70 54 -107t107 -37q48 0 83.5 17t67.5 49l72 -63q-40 -47 -94.5 -74.5t-130.5 -27.5zM463 311
q-3 31 -14 58.5t-29 47.5t-43 31.5t-57 11.5q-60 0 -99 -41.5t-48 -107.5h290z" />
    <glyph glyph-name="e" unicode="&#x11b;" horiz-adv-x="635" 
d="M334 -12q-59 0 -110.5 20.5t-89 58t-59 90t-21.5 115.5v2q0 59 20 111t55 90.5t84 61t108 22.5q65 0 114 -23.5t81.5 -64t49 -94t16.5 -112.5v-16q0 -9 -1 -18h-406q10 -70 54 -107t107 -37q48 0 83.5 17t67.5 49l72 -63q-40 -47 -94.5 -74.5t-130.5 -27.5zM463 311
q-3 31 -14 58.5t-29 47.5t-43 31.5t-57 11.5q-60 0 -99 -41.5t-48 -107.5h290z" />
    <glyph glyph-name="e" unicode="&#x119;" horiz-adv-x="635" 
d="M334 -12q-59 0 -110.5 20.5t-89 58t-59 90t-21.5 115.5v2q0 59 20 111t55 90.5t84 61t108 22.5q65 0 114 -23.5t81.5 -64t49 -94t16.5 -112.5v-16q0 -9 -1 -18h-406q10 -70 54 -107t107 -37q48 0 83.5 17t67.5 49l72 -63q-40 -47 -94.5 -74.5t-130.5 -27.5zM463 311
q-3 31 -14 58.5t-29 47.5t-43 31.5t-57 11.5q-60 0 -99 -41.5t-48 -107.5h290z" />
    <glyph glyph-name="e" unicode="&#x117;" horiz-adv-x="635" 
d="M334 -12q-59 0 -110.5 20.5t-89 58t-59 90t-21.5 115.5v2q0 59 20 111t55 90.5t84 61t108 22.5q65 0 114 -23.5t81.5 -64t49 -94t16.5 -112.5v-16q0 -9 -1 -18h-406q10 -70 54 -107t107 -37q48 0 83.5 17t67.5 49l72 -63q-40 -47 -94.5 -74.5t-130.5 -27.5zM463 311
q-3 31 -14 58.5t-29 47.5t-43 31.5t-57 11.5q-60 0 -99 -41.5t-48 -107.5h290z" />
    <glyph glyph-name="e" unicode="&#x115;" horiz-adv-x="635" 
d="M334 -12q-59 0 -110.5 20.5t-89 58t-59 90t-21.5 115.5v2q0 59 20 111t55 90.5t84 61t108 22.5q65 0 114 -23.5t81.5 -64t49 -94t16.5 -112.5v-16q0 -9 -1 -18h-406q10 -70 54 -107t107 -37q48 0 83.5 17t67.5 49l72 -63q-40 -47 -94.5 -74.5t-130.5 -27.5zM463 311
q-3 31 -14 58.5t-29 47.5t-43 31.5t-57 11.5q-60 0 -99 -41.5t-48 -107.5h290z" />
    <glyph glyph-name="e" unicode="&#x113;" horiz-adv-x="635" 
d="M334 -12q-59 0 -110.5 20.5t-89 58t-59 90t-21.5 115.5v2q0 59 20 111t55 90.5t84 61t108 22.5q65 0 114 -23.5t81.5 -64t49 -94t16.5 -112.5v-16q0 -9 -1 -18h-406q10 -70 54 -107t107 -37q48 0 83.5 17t67.5 49l72 -63q-40 -47 -94.5 -74.5t-130.5 -27.5zM463 311
q-3 31 -14 58.5t-29 47.5t-43 31.5t-57 11.5q-60 0 -99 -41.5t-48 -107.5h290z" />
    <glyph glyph-name="f" unicode="f" horiz-adv-x="398" 
d="M112 444h-69v101h69v41q0 92 46 136q43 43 122 43q33 0 56.5 -3.5t44.5 -10.5v-102q-20 6 -37.5 9.5t-37.5 3.5q-74 0 -74 -86v-32h147v-100h-146v-444h-121v444z" />
    <glyph glyph-name="g" unicode="g" horiz-adv-x="705" 
d="M328 -168q-68 0 -130 17t-116 49l46 91q45 -29 92.5 -44t104.5 -15q85 0 130.5 43t45.5 128v44q-17 -22 -37 -40.5t-43.5 -32t-52 -21t-62.5 -7.5q-49 0 -94 17.5t-79.5 50.5t-55.5 80.5t-21 107.5v2q0 61 21 108.5t56 80.5t80 50.5t93 17.5q70 0 116 -28t78 -67v84h121
v-437q0 -69 -18 -120.5t-52 -85.5q-38 -38 -94 -55.5t-129 -17.5zM337 146q33 0 63.5 11.5t53 31.5t36 48.5t13.5 62.5v2q0 35 -13.5 63.5t-36 49t-53 31.5t-63.5 11t-62 -11t-50.5 -31.5t-34 -49t-12.5 -62.5v-2q0 -35 12.5 -63.5t34 -48.5t50.5 -31.5t62 -11.5z" />
    <glyph glyph-name="g" unicode="&#x123;" horiz-adv-x="705" 
d="M328 -168q-68 0 -130 17t-116 49l46 91q45 -29 92.5 -44t104.5 -15q85 0 130.5 43t45.5 128v44q-17 -22 -37 -40.5t-43.5 -32t-52 -21t-62.5 -7.5q-49 0 -94 17.5t-79.5 50.5t-55.5 80.5t-21 107.5v2q0 61 21 108.5t56 80.5t80 50.5t93 17.5q70 0 116 -28t78 -67v84h121
v-437q0 -69 -18 -120.5t-52 -85.5q-38 -38 -94 -55.5t-129 -17.5zM337 146q33 0 63.5 11.5t53 31.5t36 48.5t13.5 62.5v2q0 35 -13.5 63.5t-36 49t-53 31.5t-63.5 11t-62 -11t-50.5 -31.5t-34 -49t-12.5 -62.5v-2q0 -35 12.5 -63.5t34 -48.5t50.5 -31.5t62 -11.5z" />
    <glyph glyph-name="g" unicode="&#x121;" horiz-adv-x="705" 
d="M328 -168q-68 0 -130 17t-116 49l46 91q45 -29 92.5 -44t104.5 -15q85 0 130.5 43t45.5 128v44q-17 -22 -37 -40.5t-43.5 -32t-52 -21t-62.5 -7.5q-49 0 -94 17.5t-79.5 50.5t-55.5 80.5t-21 107.5v2q0 61 21 108.5t56 80.5t80 50.5t93 17.5q70 0 116 -28t78 -67v84h121
v-437q0 -69 -18 -120.5t-52 -85.5q-38 -38 -94 -55.5t-129 -17.5zM337 146q33 0 63.5 11.5t53 31.5t36 48.5t13.5 62.5v2q0 35 -13.5 63.5t-36 49t-53 31.5t-63.5 11t-62 -11t-50.5 -31.5t-34 -49t-12.5 -62.5v-2q0 -35 12.5 -63.5t34 -48.5t50.5 -31.5t62 -11.5z" />
    <glyph glyph-name="g" unicode="&#x11f;" horiz-adv-x="705" 
d="M328 -168q-68 0 -130 17t-116 49l46 91q45 -29 92.5 -44t104.5 -15q85 0 130.5 43t45.5 128v44q-17 -22 -37 -40.5t-43.5 -32t-52 -21t-62.5 -7.5q-49 0 -94 17.5t-79.5 50.5t-55.5 80.5t-21 107.5v2q0 61 21 108.5t56 80.5t80 50.5t93 17.5q70 0 116 -28t78 -67v84h121
v-437q0 -69 -18 -120.5t-52 -85.5q-38 -38 -94 -55.5t-129 -17.5zM337 146q33 0 63.5 11.5t53 31.5t36 48.5t13.5 62.5v2q0 35 -13.5 63.5t-36 49t-53 31.5t-63.5 11t-62 -11t-50.5 -31.5t-34 -49t-12.5 -62.5v-2q0 -35 12.5 -63.5t34 -48.5t50.5 -31.5t62 -11.5z" />
    <glyph glyph-name="h" unicode="h" horiz-adv-x="652" 
d="M84 759h120v-297q13 19 30 37t38 31t47.5 21t58.5 8q93 0 145 -57.5t52 -153.5v-348h-121v312q0 66 -31.5 101.5t-89.5 35.5q-57 0 -93 -36.5t-36 -102.5v-310h-120v759z" />
    <glyph glyph-name="h" unicode="&#x127;" horiz-adv-x="652" 
d="M84 759h120v-297q13 19 30 37t38 31t47.5 21t58.5 8q93 0 145 -57.5t52 -153.5v-348h-121v312q0 66 -31.5 101.5t-89.5 35.5q-57 0 -93 -36.5t-36 -102.5v-310h-120v759z" />
    <glyph glyph-name="i" unicode="i" horiz-adv-x="303" 
d="M86 752h131v-116h-131v116zM91 548h121v-548h-121v548z" />
    <glyph glyph-name="i" unicode="&#x12f;" horiz-adv-x="303" 
d="M86 752h131v-116h-131v116zM91 548h121v-548h-121v548z" />
    <glyph glyph-name="i" unicode="&#x12d;" horiz-adv-x="303" 
d="M86 752h131v-116h-131v116zM91 548h121v-548h-121v548z" />
    <glyph glyph-name="i" unicode="&#x12b;" horiz-adv-x="303" 
d="M86 752h131v-116h-131v116zM91 548h121v-548h-121v548z" />
    <glyph glyph-name="j" unicode="j" horiz-adv-x="303" 
d="M86 752h131v-116h-131v116zM56 -170q-18 0 -31.5 1.5t-28.5 4.5v96q19 -3 36 -3q26 0 42.5 16t16.5 52v551h121v-558q0 -82 -40.5 -121t-115.5 -39z" />
    <glyph glyph-name="k" unicode="k" horiz-adv-x="612" 
d="M84 759h120v-462l236 251h146l-219 -225l227 -323h-142l-166 239l-82 -84v-155h-120v759z" />
    <glyph glyph-name="k" unicode="&#x137;" horiz-adv-x="612" 
d="M84 759h120v-462l236 251h146l-219 -225l227 -323h-142l-166 239l-82 -84v-155h-120v759z" />
    <glyph glyph-name="l" unicode="l" horiz-adv-x="303" 
d="M91 759h121v-759h-121v759z" />
    <glyph glyph-name="l" unicode="&#x140;" horiz-adv-x="303" 
d="M91 759h121v-759h-121v759z" />
    <glyph glyph-name="l" unicode="&#x13e;" horiz-adv-x="303" 
d="M91 759h121v-759h-121v759z" />
    <glyph glyph-name="l" unicode="&#x13c;" horiz-adv-x="303" 
d="M91 759h121v-759h-121v759z" />
    <glyph glyph-name="l" unicode="&#x13a;" horiz-adv-x="303" 
d="M91 759h121v-759h-121v759z" />
    <glyph glyph-name="m" unicode="m" horiz-adv-x="996" 
d="M84 548h120v-85q13 19 29.5 36t36.5 30.5t45.5 21.5t57.5 8q60 0 101.5 -26.5t63.5 -70.5q33 44 77.5 70.5t108.5 26.5q91 0 142 -55t51 -156v-348h-120v312q0 67 -30.5 102t-84.5 35q-53 0 -87 -35.5t-34 -103.5v-310h-121v314q0 66 -30 100.5t-84 34.5t-88 -37.5
t-34 -102.5v-309h-120v548z" />
    <glyph glyph-name="n" unicode="n" horiz-adv-x="652" 
d="M84 548h120v-86q13 19 30 37t38 31t47.5 21t58.5 8q93 0 145 -57.5t52 -153.5v-348h-121v312q0 66 -31.5 101.5t-89.5 35.5q-57 0 -93 -36.5t-36 -102.5v-310h-120v548z" />
    <glyph glyph-name="n" unicode="&#x148;" horiz-adv-x="652" 
d="M84 548h120v-86q13 19 30 37t38 31t47.5 21t58.5 8q93 0 145 -57.5t52 -153.5v-348h-121v312q0 66 -31.5 101.5t-89.5 35.5q-57 0 -93 -36.5t-36 -102.5v-310h-120v548z" />
    <glyph glyph-name="n" unicode="&#x146;" horiz-adv-x="652" 
d="M84 548h120v-86q13 19 30 37t38 31t47.5 21t58.5 8q93 0 145 -57.5t52 -153.5v-348h-121v312q0 66 -31.5 101.5t-89.5 35.5q-57 0 -93 -36.5t-36 -102.5v-310h-120v548z" />
    <glyph glyph-name="n" unicode="&#x144;" horiz-adv-x="652" 
d="M84 548h120v-86q13 19 30 37t38 31t47.5 21t58.5 8q93 0 145 -57.5t52 -153.5v-348h-121v312q0 66 -31.5 101.5t-89.5 35.5q-57 0 -93 -36.5t-36 -102.5v-310h-120v548z" />
    <glyph glyph-name="o" unicode="o" horiz-adv-x="690" 
d="M344 -12q-63 0 -116 22.5t-91.5 60.5t-60.5 89.5t-22 110.5v2q0 58 22 110t61 91t92.5 62t116.5 23t116 -22.5t91.5 -61t60.5 -90t22 -110.5v-2q0 -59 -22 -110.5t-61 -90.5t-92.5 -61.5t-116.5 -22.5zM346 93q39 0 70 14t53.5 38.5t34.5 57t12 68.5v2q0 37 -13 69.5
t-35.5 57.5t-54.5 39.5t-69 14.5q-39 0 -70 -14.5t-53.5 -39t-34.5 -57t-12 -68.5v-2q0 -37 13 -69.5t35.5 -57t54 -39t69.5 -14.5z" />
    <glyph glyph-name="o" unicode="&#x1ff;" horiz-adv-x="690" 
d="M344 -12q-63 0 -116 22.5t-91.5 60.5t-60.5 89.5t-22 110.5v2q0 58 22 110t61 91t92.5 62t116.5 23t116 -22.5t91.5 -61t60.5 -90t22 -110.5v-2q0 -59 -22 -110.5t-61 -90.5t-92.5 -61.5t-116.5 -22.5zM346 93q39 0 70 14t53.5 38.5t34.5 57t12 68.5v2q0 37 -13 69.5
t-35.5 57.5t-54.5 39.5t-69 14.5q-39 0 -70 -14.5t-53.5 -39t-34.5 -57t-12 -68.5v-2q0 -37 13 -69.5t35.5 -57t54 -39t69.5 -14.5z" />
    <glyph glyph-name="o" unicode="&#x151;" horiz-adv-x="690" 
d="M344 -12q-63 0 -116 22.5t-91.5 60.5t-60.5 89.5t-22 110.5v2q0 58 22 110t61 91t92.5 62t116.5 23t116 -22.5t91.5 -61t60.5 -90t22 -110.5v-2q0 -59 -22 -110.5t-61 -90.5t-92.5 -61.5t-116.5 -22.5zM346 93q39 0 70 14t53.5 38.5t34.5 57t12 68.5v2q0 37 -13 69.5
t-35.5 57.5t-54.5 39.5t-69 14.5q-39 0 -70 -14.5t-53.5 -39t-34.5 -57t-12 -68.5v-2q0 -37 13 -69.5t35.5 -57t54 -39t69.5 -14.5z" />
    <glyph glyph-name="o" unicode="&#x14f;" horiz-adv-x="690" 
d="M344 -12q-63 0 -116 22.5t-91.5 60.5t-60.5 89.5t-22 110.5v2q0 58 22 110t61 91t92.5 62t116.5 23t116 -22.5t91.5 -61t60.5 -90t22 -110.5v-2q0 -59 -22 -110.5t-61 -90.5t-92.5 -61.5t-116.5 -22.5zM346 93q39 0 70 14t53.5 38.5t34.5 57t12 68.5v2q0 37 -13 69.5
t-35.5 57.5t-54.5 39.5t-69 14.5q-39 0 -70 -14.5t-53.5 -39t-34.5 -57t-12 -68.5v-2q0 -37 13 -69.5t35.5 -57t54 -39t69.5 -14.5z" />
    <glyph glyph-name="o" unicode="&#x14d;" horiz-adv-x="690" 
d="M344 -12q-63 0 -116 22.5t-91.5 60.5t-60.5 89.5t-22 110.5v2q0 58 22 110t61 91t92.5 62t116.5 23t116 -22.5t91.5 -61t60.5 -90t22 -110.5v-2q0 -59 -22 -110.5t-61 -90.5t-92.5 -61.5t-116.5 -22.5zM346 93q39 0 70 14t53.5 38.5t34.5 57t12 68.5v2q0 37 -13 69.5
t-35.5 57.5t-54.5 39.5t-69 14.5q-39 0 -70 -14.5t-53.5 -39t-34.5 -57t-12 -68.5v-2q0 -37 13 -69.5t35.5 -57t54 -39t69.5 -14.5z" />
    <glyph glyph-name="p" unicode="p" horiz-adv-x="705" 
d="M84 548h120v-94q31 44 76.5 74.5t113.5 30.5q48 0 94 -19t82 -55t57.5 -89t21.5 -121v-2q0 -68 -21.5 -121t-57 -89t-81.5 -55t-95 -19q-69 0 -114.5 29.5t-75.5 68.5v-253h-120v714zM366 93q33 0 62.5 12.5t51 36t34.5 56.5t13 75v2q0 41 -13 74t-35 56.5t-51 36.5
t-62 13t-62.5 -13t-52 -36.5t-36 -57t-13.5 -73.5v-2q0 -41 13.5 -74t36 -56.5t52 -36.5t62.5 -13z" />
    <glyph glyph-name="q" unicode="q" horiz-adv-x="705" 
d="M500 94q-15 -22 -34 -41t-42 -33.5t-51 -22.5t-62 -8q-48 0 -94 19t-82 55t-57.5 89t-21.5 121v2q0 68 21.5 121t57 89t81.5 55t95 19q69 0 114.5 -29.5t74.5 -68.5v87h121v-714h-121v260zM339 93q33 0 62.5 13t52 36.5t36 56.5t13.5 74v2q0 40 -13.5 73.5t-36 57
t-52 36.5t-62.5 13t-62.5 -12.5t-51 -36t-34.5 -56.5t-13 -75v-2q0 -41 13 -74t35 -56.5t51 -36.5t62 -13z" />
    <glyph glyph-name="r" unicode="r" horiz-adv-x="436" 
d="M84 548h120v-126q27 63 76 101t122 35v-127h-7q-42 0 -77 -14t-60.5 -41.5t-39.5 -69t-14 -96.5v-210h-120v548z" />
    <glyph glyph-name="s" unicode="s" 
d="M271 -10q-59 0 -120 20t-112 61l55 82q45 -33 91 -50.5t90 -17.5q42 0 65 17t23 46v2q0 16 -10 28t-27.5 20.5t-40 15.5t-46.5 15q-30 9 -61 20.5t-55.5 29.5t-40 44.5t-15.5 65.5v2q0 39 15 69.5t41 52t61 33t76 11.5q52 0 105 -16.5t96 -45.5l-48 -86q-40 24 -80 38
t-75 14q-38 0 -59 -16t-21 -41v-2q0 -15 10 -26.5t27.5 -20.5t40 -17t47.5 -16q30 -9 60.5 -21.5t55 -30.5t40 -44t15.5 -63v-2q0 -43 -15.5 -75t-43 -53.5t-64.5 -32t-80 -10.5z" />
    <glyph glyph-name="t" unicode="t" horiz-adv-x="434" 
d="M268 -9q-35 0 -63.5 8t-49.5 27t-32.5 49t-11.5 75v294h-71v104h71v152h120v-152h150v-104h-150v-275q0 -38 18.5 -54.5t51.5 -16.5q21 0 40 5t38 14v-99q-23 -13 -49.5 -20t-61.5 -7z" />
    <glyph glyph-name="t" unicode="&#x21b;" horiz-adv-x="434" 
d="M268 -9q-35 0 -63.5 8t-49.5 27t-32.5 49t-11.5 75v294h-71v104h71v152h120v-152h150v-104h-150v-275q0 -38 18.5 -54.5t51.5 -16.5q21 0 40 5t38 14v-99q-23 -13 -49.5 -20t-61.5 -7z" />
    <glyph glyph-name="t" unicode="&#x165;" horiz-adv-x="434" 
d="M268 -9q-35 0 -63.5 8t-49.5 27t-32.5 49t-11.5 75v294h-71v104h71v152h120v-152h150v-104h-150v-275q0 -38 18.5 -54.5t51.5 -16.5q21 0 40 5t38 14v-99q-23 -13 -49.5 -20t-61.5 -7z" />
    <glyph glyph-name="t" unicode="&#x163;" horiz-adv-x="434" 
d="M268 -9q-35 0 -63.5 8t-49.5 27t-32.5 49t-11.5 75v294h-71v104h71v152h120v-152h150v-104h-150v-275q0 -38 18.5 -54.5t51.5 -16.5q21 0 40 5t38 14v-99q-23 -13 -49.5 -20t-61.5 -7z" />
    <glyph glyph-name="u" unicode="u" horiz-adv-x="652" 
d="M275 -11q-94 0 -146 57.5t-52 153.5v348h121v-312q0 -66 32 -101.5t89 -35.5t93 36.5t36 102.5v310h120v-548h-120v86q-27 -39 -68 -68t-105 -29z" />
    <glyph glyph-name="v" unicode="v" horiz-adv-x="625" 
d="M32 548h130l151 -408l153 408h127l-226 -552h-109z" />
    <glyph glyph-name="w" unicode="w" horiz-adv-x="903" 
d="M38 548h124l114 -383l125 385h102l125 -385l116 383h121l-181 -552h-107l-125 381l-127 -381h-107z" />
    <glyph glyph-name="x" unicode="x" horiz-adv-x="610" 
d="M306 361l131 187h129l-195 -267l203 -281h-132l-139 198l-138 -198h-129l202 279l-194 269h132z" />
    <glyph glyph-name="y" unicode="y" horiz-adv-x="628" 
d="M467 548h126l-219 -563q-17 -42 -34.5 -71.5t-39.5 -48t-48 -27t-59 -8.5q-38 0 -68.5 8.5t-59.5 24.5l41 91q17 -10 36 -16t39 -6q28 0 46.5 15t35.5 53l-231 548h129l160 -413z" />
    <glyph glyph-name="y" unicode="&#x1ef3;" horiz-adv-x="628" 
d="M467 548h126l-219 -563q-17 -42 -34.5 -71.5t-39.5 -48t-48 -27t-59 -8.5q-38 0 -68.5 8.5t-59.5 24.5l41 91q17 -10 36 -16t39 -6q28 0 46.5 15t35.5 53l-231 548h129l160 -413z" />
    <glyph glyph-name="y" unicode="&#x177;" horiz-adv-x="628" 
d="M467 548h126l-219 -563q-17 -42 -34.5 -71.5t-39.5 -48t-48 -27t-59 -8.5q-38 0 -68.5 8.5t-59.5 24.5l41 91q17 -10 36 -16t39 -6q28 0 46.5 15t35.5 53l-231 548h129l160 -413z" />
    <glyph glyph-name="z" unicode="z" horiz-adv-x="590" 
d="M59 83l321 366h-310v99h464v-83l-321 -366h321v-99h-475v83z" />
    <glyph glyph-name="braceleft" unicode="{" horiz-adv-x="514" 
d="M437 -147q-71 13 -116.5 32t-72 44.5t-36.5 58.5t-10 73q0 6 0.5 16t0.5 21t0.5 21.5t0.5 17.5q0 61 -26 88t-92 27h-27v93h27q66 0 92 27t26 88q0 7 -0.5 17.5t-0.5 21.5t-0.5 21t-0.5 16q0 40 10 73t36.5 58.5t72 44.5t116.5 32l20 -80q-48 -13 -76.5 -26.5t-43.5 -30
t-19.5 -38t-4.5 -50.5q0 -16 1 -38.5t1 -39.5q0 -61 -28 -93.5t-80 -49.5q53 -17 80.5 -49t27.5 -94q0 -16 -1 -38.5t-1 -38.5q0 -29 4.5 -50.5t19.5 -38t43.5 -30t76.5 -26.5z" />
    <glyph glyph-name="bar" unicode="|" horiz-adv-x="349" 
d="M126 830h97v-963h-97v963z" />
    <glyph glyph-name="braceright" unicode="}" horiz-adv-x="514" 
d="M57 -67q48 13 76.5 26.5t43.5 30t19.5 38t4.5 50.5q0 16 -1.5 38.5t-1.5 38.5q0 62 28.5 94.5t80.5 48.5q-53 17 -81 49.5t-28 93.5q0 17 1.5 39.5t1.5 38.5q0 29 -4.5 50.5t-19.5 38t-43.5 30t-76.5 26.5l20 80q71 -13 116.5 -32t72 -44.5t36.5 -58.5t10 -73
q0 -6 -0.5 -16t-0.5 -21t-0.5 -21.5t-0.5 -17.5q0 -61 26 -88t92 -27h27v-93h-27q-66 0 -92 -27t-26 -88q0 -7 0.5 -17.5t0.5 -21.5t0.5 -21t0.5 -16q0 -40 -10 -73t-36.5 -58.5t-72 -44.5t-116.5 -32z" />
    <glyph glyph-name="exclamdown" unicode="&#xa1;" horiz-adv-x="319" 
d="M93 728h133v-139h-133v139zM89 39l37 462h67l37 -462v-39h-141v39z" />
    <glyph glyph-name="cent" unicode="&#xa2;" horiz-adv-x="612" 
d="M438 641q70 -21 124 -81l-74 -79q-36 38 -75 54l-68 -346h1q44 0 80.5 19t66.5 50l70 -70q-41 -46 -94.5 -75.5t-130.5 -29.5h-10l-17 -89h-88l20 105q-41 15 -74.5 41.5t-58.5 61t-38.5 76.5t-13.5 89v2q0 58 21.5 110t59.5 91t90 62t113 23h9l16 79h89zM177 369
q0 -54 24 -97t66 -65l69 343h-1q-34 -1 -63 -15t-50 -38.5t-33 -56.5t-12 -69v-2z" />
    <glyph glyph-name="sterling" unicode="&#xa3;" horiz-adv-x="678" 
d="M70 77l83 25v190h-83v103h83v98q0 57 16 103t48 78q31 31 74.5 47.5t99.5 16.5q43 0 77 -9t62 -24.5t50 -36.5t40 -46l-94 -75q-29 37 -59 57.5t-75 20.5q-26 0 -45 -8t-34 -23q-36 -36 -36 -104v-95h262v-103h-262v-185h341v-107h-548v77z" />
    <glyph glyph-name="yen" unicode="&#xa5;" horiz-adv-x="721" 
d="M100 364h167l-242 364h143l194 -311l196 311h138l-243 -364h169v-89h-202v-78h202v-89h-202v-108h-118v108h-202v89h202v78h-202v89z" />
    <glyph glyph-name="dieresis" unicode="&#xa8;" 
d="M302 739h124v-120h-124v120zM102 739h124v-120h-124v120z" />
    <glyph glyph-name="copyright" unicode="&#xa9;" horiz-adv-x="871" 
d="M435 -12q-80 0 -148.5 29.5t-119 80.5t-79.5 119t-29 145v2q0 77 29.5 145.5t80.5 119.5t120 81t148 30t147.5 -29.5t119 -80.5t79.5 -119t29 -145v-2q0 -77 -29 -145.5t-80 -119.5t-120 -81t-148 -30zM435 25q72 0 134 27t107 73t71 107.5t26 131.5v2q0 70 -25.5 131
t-70.5 107t-106.5 72.5t-133.5 26.5t-134 -27t-107.5 -73t-71.5 -107.5t-26 -131.5v-2q0 -70 25.5 -131.5t71 -107t107 -72t133.5 -26.5zM440 166q-43 0 -79.5 16t-63.5 43t-42 63.5t-15 78.5v3q0 41 15 78t42 64.5t64 44t81 16.5q55 0 90 -17.5t64 -44.5l-48 -55
q-23 21 -48.5 34.5t-57.5 13.5q-27 0 -50 -10.5t-39.5 -28.5t-26 -42.5t-9.5 -51.5v-2q0 -27 9.5 -51.5t26 -43t39.5 -29t50 -10.5q35 0 59.5 13t49.5 36l48 -48q-31 -32 -67.5 -51t-91.5 -19z" />
    <glyph glyph-name="ordfeminine" unicode="&#xaa;" horiz-adv-x="414" 
d="M171 419q-21 0 -40.5 6t-34.5 18t-24 29.5t-9 40.5v2q0 49 35 73t90 24q25 0 43.5 -3.5t35.5 -8.5v5q0 65 -73 65q-25 0 -45 -5.5t-42 -14.5l-19 55q26 12 52.5 19t62.5 7q66 0 100 -34q32 -32 32 -92v-179h-68v36q-17 -20 -40.5 -31.5t-55.5 -11.5zM188 472
q34 0 57 17.5t23 45.5v20q-14 5 -30.5 8t-36.5 3q-32 0 -50.5 -12.5t-18.5 -35.5v-2q0 -21 16 -32.5t40 -11.5zM60 353h279v-59h-279v59z" />
    <glyph glyph-name="guillemotleft" unicode="&#xab;" horiz-adv-x="631" 
d="M308 270v8l179 226l85 -44l-131 -185l131 -186l-85 -45zM50 270v8l179 226l85 -44l-131 -185l131 -186l-85 -45z" />
    <glyph glyph-name="registered" unicode="&#xae;" horiz-adv-x="408" 
d="M204 374q-38 0 -71 14.5t-57.5 39t-38.5 57.5t-14 70v1q0 37 14 70t38.5 58t57.5 39.5t71 14.5t71 -14.5t57.5 -39t38.5 -57.5t14 -70v-1q0 -37 -14 -70t-38.5 -58t-57.5 -39.5t-71 -14.5zM204 394q34 0 63.5 13t51 35t33.5 51.5t12 62.5v1q0 33 -12 62.5t-33.5 51.5
t-51 35t-63.5 13t-63 -13t-50.5 -35t-34 -52t-12.5 -63v-1q0 -33 12 -62.5t33.5 -51t51 -34.5t63.5 -13zM129 654h88q32 0 54 -15t22 -47v-1q0 -21 -11.5 -36.5t-30.5 -20.5l48 -68h-53l-41 60h-31v-60h-45v188zM214 562q16 0 24.5 7.5t8.5 19.5v1q0 11 -8.5 18.5t-24.5 6.5
h-40v-53h40z" />
    <glyph glyph-name="macron" unicode="&#xaf;" 
d="M89 720h350v-88h-350v88z" />
    <glyph glyph-name="degree" unicode="&#xb0;" horiz-adv-x="496" 
d="M248 399q-34 0 -65 13.5t-55 36t-38 53t-14 63.5v3q0 33 14 63.5t38 53t55 36t65 13.5t65 -13.5t55 -36t38 -53t14 -63.5v-3q0 -33 -14 -63.5t-38 -53t-55 -36t-65 -13.5zM248 465q21 0 39.5 8t31.5 22t20.5 32t7.5 38v3q0 20 -7.5 38t-20.5 32t-31.5 22t-39.5 8
t-39.5 -8t-31.5 -22t-20.5 -32t-7.5 -38v-3q0 -20 7.5 -38t20.5 -32t31.5 -22t39.5 -8z" />
    <glyph glyph-name="acute" unicode="&#xb4;" 
d="M282 787l110 -50l-126 -118h-91z" />
    <glyph glyph-name="periodcentered" unicode="&#xb7;" horiz-adv-x="285" 
d="M76 387h133v-139h-133v139z" />
    <glyph glyph-name="cedilla" unicode="&#xb8;" 
d="M143 -126l97 143h90l-81 -188z" />
    <glyph glyph-name="ordmasculine" unicode="&#xba;" horiz-adv-x="414" 
d="M206 419q-34 0 -62.5 12t-49.5 33t-32.5 49.5t-11.5 60.5v2q0 32 12 60.5t33 50t50 34t63 12.5t62.5 -12t49 -33t32 -49.5t11.5 -60.5v-2q0 -33 -12 -61.5t-33 -49.5t-49.5 -33.5t-62.5 -12.5zM57 353h300v-59h-300v59zM208 482q38 0 61 27t23 65v2q0 38 -24 66t-62 28
t-61.5 -27t-23.5 -65v-2q0 -38 24.5 -66t62.5 -28z" />
    <glyph glyph-name="guillemotright" unicode="&#xbb;" horiz-adv-x="631" 
d="M318 88l130 185l-130 186l85 45l178 -226v-8l-178 -226zM59 88l131 185l-131 186l86 45l178 -226v-8l-178 -226z" />
    <glyph glyph-name="questiondown" unicode="&#xbf;" horiz-adv-x="570" 
d="M245 728h133v-139h-133v139zM291 -9q-55 0 -99.5 15t-76.5 42.5t-49.5 66.5t-17.5 87v2q0 49 16.5 85t45 61.5t66.5 40.5t82 23l11 87h81l20 -169l-5 -5q-101 -4 -147.5 -35t-46.5 -85v-2q0 -45 32.5 -74t89.5 -29q51 0 92.5 21.5t79.5 62.5l75 -79q-45 -52 -105 -84
t-144 -32z" />
    <glyph glyph-name="Agrave" unicode="&#xc0;" horiz-adv-x="830" 
d="M358 733h114l321 -733h-129l-76 177h-350l-76 -177h-126zM543 287l-130 300l-130 -300h260zM369 799l-131 100l110 49l116 -149h-95z" />
    <glyph glyph-name="Aacute" unicode="&#xc1;" horiz-adv-x="830" 
d="M358 733h114l321 -733h-129l-76 177h-350l-76 -177h-126zM543 287l-130 300l-130 -300h260zM481 948l110 -49l-131 -100h-94z" />
    <glyph glyph-name="Acircumflex" unicode="&#xc2;" horiz-adv-x="830" 
d="M358 733h114l321 -733h-129l-76 177h-350l-76 -177h-126zM543 287l-130 300l-130 -300h260zM358 934h114l124 -138h-102l-80 60l-80 -60h-100z" />
    <glyph glyph-name="Atilde" unicode="&#xc3;" horiz-adv-x="830" 
d="M358 733h114l321 -733h-129l-76 177h-350l-76 -177h-126zM543 287l-130 300l-130 -300h260zM500 799q-23 0 -46 7.5t-45 15.5q-17 7 -32.5 12t-27.5 5q-23 0 -35 -12t-23 -38l-68 20q17 60 42.5 93t72.5 33q23 0 46 -7.5t45 -16.5q17 -7 32.5 -12t27.5 -5q23 0 34.5 12
t22.5 38l68 -20q-17 -60 -42.5 -92.5t-71.5 -32.5z" />
    <glyph glyph-name="Adieresis" unicode="&#xc4;" horiz-adv-x="830" 
d="M358 733h114l321 -733h-129l-76 177h-350l-76 -177h-126zM543 287l-130 300l-130 -300h260zM458 912h125v-113h-125v113zM246 912h126v-113h-126v113z" />
    <glyph glyph-name="Aring" unicode="&#xc5;" horiz-adv-x="830" 
d="M338 690q-21 14 -33.5 36t-12.5 50q0 24 10 44t26.5 34.5t39 22.5t47.5 8t47 -8t38.5 -22.5t26.5 -34.5t10 -44q0 -27 -12.5 -49t-33.5 -37l302 -690h-129l-76 177h-350l-76 -177h-126zM543 287l-130 300l-130 -300h260zM415 715q29 0 48 17.5t19 43.5t-19 43t-48 17
q-30 0 -49 -17t-19 -43t19 -43.5t49 -17.5z" />
    <glyph glyph-name="AE" unicode="&#xc6;" horiz-adv-x="1095" 
d="M427 728h600v-110h-394v-196h347v-110h-347v-202h399v-110h-521v177h-268l-99 -177h-127zM511 287v334h-22l-187 -334h209z" />
    <glyph glyph-name="AE" unicode="&#x1fc;" horiz-adv-x="1095" 
d="M427 728h600v-110h-394v-196h347v-110h-347v-202h399v-110h-521v177h-268l-99 -177h-127zM511 287v334h-22l-187 -334h209z" />
    <glyph glyph-name="Ccedilla" unicode="&#xc7;" horiz-adv-x="777" 
d="M284 -126l81 121q-66 12 -120.5 44.5t-94.5 81t-62 110.5t-22 131v2q0 78 28 146.5t77.5 119.5t118.5 80.5t151 29.5q50 0 91 -8t75.5 -23t63.5 -36t55 -46l-80 -91q-44 42 -93 66.5t-113 24.5q-53 0 -98 -20.5t-77.5 -55.5t-51 -83t-18.5 -102v-2q0 -55 18.5 -103
t51 -83.5t77.5 -56t98 -20.5q68 0 116.5 25t95.5 70l79 -80q-54 -56 -117.5 -89.5t-154.5 -37.5l-69 -160z" />
    <glyph glyph-name="Egrave" unicode="&#xc8;" horiz-adv-x="705" 
d="M324 789l-131 100l110 49l116 -149h-95zM99 728h538v-110h-416v-196h369v-110h-369v-202h421v-110h-543v728z" />
    <glyph glyph-name="Eacute" unicode="&#xc9;" horiz-adv-x="705" 
d="M436 938l110 -49l-131 -100h-94zM99 728h538v-110h-416v-196h369v-110h-369v-202h421v-110h-543v728z" />
    <glyph glyph-name="Ecircumflex" unicode="&#xca;" horiz-adv-x="705" 
d="M99 728h538v-110h-416v-196h369v-110h-369v-202h421v-110h-543v728zM313 927h114l124 -138h-102l-80 60l-80 -60h-100z" />
    <glyph glyph-name="Edieresis" unicode="&#xcb;" horiz-adv-x="705" 
d="M413 902h125v-113h-125v113zM201 902h126v-113h-126v113zM99 728h538v-110h-416v-196h369v-110h-369v-202h421v-110h-543v728z" />
    <glyph glyph-name="Igrave" unicode="&#xcc;" horiz-adv-x="335" 
d="M106 728h123v-728h-123v728zM123 789l-131 100l110 49l116 -149h-95z" />
    <glyph glyph-name="Iacute" unicode="&#xcd;" horiz-adv-x="335" 
d="M106 728h123v-728h-123v728zM234 938l110 -49l-131 -100h-94z" />
    <glyph glyph-name="Icircumflex" unicode="&#xce;" horiz-adv-x="335" 
d="M106 728h123v-728h-123v728zM111 927h114l124 -138h-102l-80 60l-80 -60h-100z" />
    <glyph glyph-name="Idieresis" unicode="&#xcf;" horiz-adv-x="335" 
d="M106 728h123v-728h-123v728zM212 902h125v-113h-125v113zM0 902h126v-113h-126v113z" />
    <glyph glyph-name="Eth" unicode="&#xd0;" horiz-adv-x="852" 
d="M130 322h-78v89h78v317h269q86 0 157 -27.5t122 -76.5t79.5 -115t28.5 -143v-2q0 -77 -28.5 -143.5t-79.5 -115.5t-122 -77t-157 -28h-269v322zM253 322v-211h146q58 0 106 19t82 52.5t52.5 79.5t18.5 100v2q0 54 -18.5 100.5t-52.5 80t-82 53t-106 19.5h-146v-206h186
v-89h-186z" />
    <glyph glyph-name="Ntilde" unicode="&#xd1;" horiz-adv-x="830" 
d="M500 788q-23 0 -46 7.5t-45 15.5q-17 7 -32.5 12t-27.5 5q-23 0 -35 -12t-23 -38l-68 20q17 60 42.5 93t72.5 33q23 0 46 -7.5t45 -16.5q17 -7 32.5 -12t27.5 -5q23 0 34.5 12t22.5 38l68 -20q-17 -60 -42.5 -92.5t-71.5 -32.5zM99 728h113l398 -513v513h121v-728h-103
l-408 527v-527h-121v728z" />
    <glyph glyph-name="Ograve" unicode="&#xd2;" horiz-adv-x="892" 
d="M400 799l-131 100l110 49l116 -149h-95zM445 -12q-84 0 -153.5 29.5t-119.5 80.5t-78 119t-28 145v2q0 76 28 144.5t78.5 120t120.5 81.5t154 30t153.5 -30t119.5 -81t78 -119t28 -144v-2q0 -77 -28 -145t-78.5 -119.5t-120.5 -81.5t-154 -30zM447 101q55 0 101 20.5
t79 56t51.5 83t18.5 101.5v2q0 54 -18.5 102t-52 83.5t-80 56.5t-101.5 21t-101 -20.5t-79 -56t-51.5 -83t-18.5 -101.5v-2q0 -54 18.5 -102t52 -83.5t80 -56.5t101.5 -21z" />
    <glyph glyph-name="Oacute" unicode="&#xd3;" horiz-adv-x="892" 
d="M512 948l110 -49l-131 -100h-94zM445 -12q-84 0 -153.5 29.5t-119.5 80.5t-78 119t-28 145v2q0 76 28 144.5t78.5 120t120.5 81.5t154 30t153.5 -30t119.5 -81t78 -119t28 -144v-2q0 -77 -28 -145t-78.5 -119.5t-120.5 -81.5t-154 -30zM447 101q55 0 101 20.5t79 56
t51.5 83t18.5 101.5v2q0 54 -18.5 102t-52 83.5t-80 56.5t-101.5 21t-101 -20.5t-79 -56t-51.5 -83t-18.5 -101.5v-2q0 -54 18.5 -102t52 -83.5t80 -56.5t101.5 -21z" />
    <glyph glyph-name="Ocircumflex" unicode="&#xd4;" horiz-adv-x="892" 
d="M445 -12q-84 0 -153.5 29.5t-119.5 80.5t-78 119t-28 145v2q0 76 28 144.5t78.5 120t120.5 81.5t154 30t153.5 -30t119.5 -81t78 -119t28 -144v-2q0 -77 -28 -145t-78.5 -119.5t-120.5 -81.5t-154 -30zM447 101q55 0 101 20.5t79 56t51.5 83t18.5 101.5v2q0 54 -18.5 102
t-52 83.5t-80 56.5t-101.5 21t-101 -20.5t-79 -56t-51.5 -83t-18.5 -101.5v-2q0 -54 18.5 -102t52 -83.5t80 -56.5t101.5 -21zM389 937h114l124 -138h-102l-80 60l-80 -60h-100z" />
    <glyph glyph-name="Otilde" unicode="&#xd5;" horiz-adv-x="892" 
d="M531 799q-23 0 -46 7.5t-45 15.5q-17 7 -32.5 12t-27.5 5q-23 0 -35 -12t-23 -38l-68 20q17 60 42.5 93t72.5 33q23 0 46 -7.5t45 -16.5q17 -7 32.5 -12t27.5 -5q23 0 34.5 12t22.5 38l68 -20q-17 -60 -42.5 -92.5t-71.5 -32.5zM445 -12q-84 0 -153.5 29.5t-119.5 80.5
t-78 119t-28 145v2q0 76 28 144.5t78.5 120t120.5 81.5t154 30t153.5 -30t119.5 -81t78 -119t28 -144v-2q0 -77 -28 -145t-78.5 -119.5t-120.5 -81.5t-154 -30zM447 101q55 0 101 20.5t79 56t51.5 83t18.5 101.5v2q0 54 -18.5 102t-52 83.5t-80 56.5t-101.5 21t-101 -20.5
t-79 -56t-51.5 -83t-18.5 -101.5v-2q0 -54 18.5 -102t52 -83.5t80 -56.5t101.5 -21z" />
    <glyph glyph-name="Odieresis" unicode="&#xd6;" horiz-adv-x="892" 
d="M489 912h125v-113h-125v113zM277 912h126v-113h-126v113zM445 -12q-84 0 -153.5 29.5t-119.5 80.5t-78 119t-28 145v2q0 76 28 144.5t78.5 120t120.5 81.5t154 30t153.5 -30t119.5 -81t78 -119t28 -144v-2q0 -77 -28 -145t-78.5 -119.5t-120.5 -81.5t-154 -30zM447 101
q55 0 101 20.5t79 56t51.5 83t18.5 101.5v2q0 54 -18.5 102t-52 83.5t-80 56.5t-101.5 21t-101 -20.5t-79 -56t-51.5 -83t-18.5 -101.5v-2q0 -54 18.5 -102t52 -83.5t80 -56.5t101.5 -21z" />
    <glyph glyph-name="Oslash" unicode="&#xd8;" horiz-adv-x="892" 
d="M834 733l-103 -116q45 -51 70 -115t25 -136v-2q0 -77 -28 -145t-78.5 -119.5t-120.5 -81.5t-154 -30q-63 0 -116.5 16.5t-98.5 45.5l-51 -55h-121l102 116q-45 50 -69.5 114.5t-24.5 136.5v2q0 76 28 144.5t78.5 120t120.5 81.5t154 30q62 0 116 -16.5t99 -46.5l51 56
h121zM193 365q0 -46 13 -87t37 -75l342 385q-30 20 -65 31t-75 11q-56 0 -102 -21t-79.5 -57t-52 -84t-18.5 -102v-1zM447 98q55 0 101.5 21t80.5 57t52.5 84t18.5 102v1q0 46 -13.5 87t-37.5 75l-342 -385q29 -20 64.5 -31t75.5 -11z" />
    <glyph glyph-name="Ugrave" unicode="&#xd9;" horiz-adv-x="796" 
d="M352 788l-131 100l110 49l116 -149h-95zM396 -11q-71 0 -128 20.5t-97 60.5t-62 100t-22 139v419h123v-415q0 -103 50 -157t139 -54q87 0 136.5 51.5t49.5 154.5v420h123v-414q0 -81 -22 -142t-63 -101.5t-98.5 -61t-128.5 -20.5z" />
    <glyph glyph-name="Uacute" unicode="&#xda;" horiz-adv-x="796" 
d="M464 937l110 -49l-131 -100h-94zM396 -11q-71 0 -128 20.5t-97 60.5t-62 100t-22 139v419h123v-415q0 -103 50 -157t139 -54q87 0 136.5 51.5t49.5 154.5v420h123v-414q0 -81 -22 -142t-63 -101.5t-98.5 -61t-128.5 -20.5z" />
    <glyph glyph-name="Ucircumflex" unicode="&#xdb;" horiz-adv-x="796" 
d="M396 -11q-71 0 -128 20.5t-97 60.5t-62 100t-22 139v419h123v-415q0 -103 50 -157t139 -54q87 0 136.5 51.5t49.5 154.5v420h123v-414q0 -81 -22 -142t-63 -101.5t-98.5 -61t-128.5 -20.5zM341 926h114l124 -138h-102l-80 60l-80 -60h-100z" />
    <glyph glyph-name="Udieresis" unicode="&#xdc;" horiz-adv-x="796" 
d="M441 901h125v-113h-125v113zM229 901h126v-113h-126v113zM396 -11q-71 0 -128 20.5t-97 60.5t-62 100t-22 139v419h123v-415q0 -103 50 -157t139 -54q87 0 136.5 51.5t49.5 154.5v420h123v-414q0 -81 -22 -142t-63 -101.5t-98.5 -61t-128.5 -20.5z" />
    <glyph glyph-name="Yacute" unicode="&#xdd;" horiz-adv-x="753" 
d="M315 287l-291 441h145l208 -327l211 327h141l-291 -438v-290h-123v287zM442 937l110 -49l-131 -100h-94z" />
    <glyph glyph-name="Thorn" unicode="&#xde;" horiz-adv-x="708" 
d="M99 728h123v-115h162q63 0 114 -17.5t87 -49t55.5 -76t19.5 -99.5v-2q0 -61 -23 -107.5t-62.5 -77.5t-92 -47t-112.5 -16h-148v-121h-123v728zM374 232q75 0 118.5 37.5t43.5 96.5v2q0 66 -44 99.5t-118 33.5h-152v-269h152z" />
    <glyph glyph-name="germandbls" unicode="&#xdf;" horiz-adv-x="653" 
d="M311 91q78 2 121.5 31t43.5 84v2q0 52 -45.5 82t-119.5 39v83q26 12 48 26.5t38.5 32.5t26 40t9.5 48v2q0 47 -29.5 74.5t-79.5 27.5q-53 0 -86.5 -37t-33.5 -100v-526h-120v522q0 57 17.5 102t49.5 76.5t77.5 48.5t101.5 17q53 0 94.5 -15t70 -41t43.5 -61.5t15 -76.5
v-2q0 -35 -9.5 -63t-26 -50t-38 -38.5t-44.5 -28.5q31 -10 60.5 -25t52 -37.5t36 -53t13.5 -69.5v-2q0 -50 -20 -89t-57.5 -65.5t-90 -39.5t-118.5 -11v93z" />
    <glyph glyph-name="agrave" unicode="&#xe0;" horiz-adv-x="617" 
d="M243 -11q-39 0 -74.5 11t-62.5 32.5t-43 53t-16 72.5v2q0 44 16.5 77t46.5 55t72 33t92 11q47 0 82.5 -6t67.5 -17v14q0 60 -35.5 91.5t-103.5 31.5q-47 0 -83.5 -9t-74.5 -25l-32 94q45 20 93 32.5t113 12.5q61 0 106.5 -16t74.5 -45q30 -29 44 -71.5t14 -96.5v-326
h-117v70q-28 -34 -72 -57.5t-108 -23.5zM275 77q32 0 59.5 9t48 24.5t32 37.5t11.5 49v40q-25 9 -57.5 15.5t-71.5 6.5q-63 0 -97.5 -25t-34.5 -69v-2q0 -42 32 -64t78 -22zM141 737l110 50l107 -168h-91z" />
    <glyph glyph-name="aacute" unicode="&#xe1;" horiz-adv-x="617" 
d="M243 -11q-39 0 -74.5 11t-62.5 32.5t-43 53t-16 72.5v2q0 44 16.5 77t46.5 55t72 33t92 11q47 0 82.5 -6t67.5 -17v14q0 60 -35.5 91.5t-103.5 31.5q-47 0 -83.5 -9t-74.5 -25l-32 94q45 20 93 32.5t113 12.5q61 0 106.5 -16t74.5 -45q30 -29 44 -71.5t14 -96.5v-326
h-117v70q-28 -34 -72 -57.5t-108 -23.5zM275 77q32 0 59.5 9t48 24.5t32 37.5t11.5 49v40q-25 9 -57.5 15.5t-71.5 6.5q-63 0 -97.5 -25t-34.5 -69v-2q0 -42 32 -64t78 -22zM369 787l110 -50l-126 -118h-91z" />
    <glyph glyph-name="acircumflex" unicode="&#xe2;" horiz-adv-x="617" 
d="M243 -11q-39 0 -74.5 11t-62.5 32.5t-43 53t-16 72.5v2q0 44 16.5 77t46.5 55t72 33t92 11q47 0 82.5 -6t67.5 -17v14q0 60 -35.5 91.5t-103.5 31.5q-47 0 -83.5 -9t-74.5 -25l-32 94q45 20 93 32.5t113 12.5q61 0 106.5 -16t74.5 -45q30 -29 44 -71.5t14 -96.5v-326
h-117v70q-28 -34 -72 -57.5t-108 -23.5zM275 77q32 0 59.5 9t48 24.5t32 37.5t11.5 49v40q-25 9 -57.5 15.5t-71.5 6.5q-63 0 -97.5 -25t-34.5 -69v-2q0 -42 32 -64t78 -22zM254 769h112l120 -150h-97l-80 69l-80 -69h-94z" />
    <glyph glyph-name="atilde" unicode="&#xe3;" horiz-adv-x="617" 
d="M243 -11q-39 0 -74.5 11t-62.5 32.5t-43 53t-16 72.5v2q0 44 16.5 77t46.5 55t72 33t92 11q47 0 82.5 -6t67.5 -17v14q0 60 -35.5 91.5t-103.5 31.5q-47 0 -83.5 -9t-74.5 -25l-32 94q45 20 93 32.5t113 12.5q61 0 106.5 -16t74.5 -45q30 -29 44 -71.5t14 -96.5v-326
h-117v70q-28 -34 -72 -57.5t-108 -23.5zM275 77q32 0 59.5 9t48 24.5t32 37.5t11.5 49v40q-25 9 -57.5 15.5t-71.5 6.5q-63 0 -97.5 -25t-34.5 -69v-2q0 -42 32 -64t78 -22zM393 619q-23 0 -44 7t-41 15q-18 8 -34 13.5t-29 5.5q-23 0 -34.5 -12.5t-22.5 -38.5l-67 20
q17 63 42 95t72 32q23 0 44 -7t41 -15q18 -8 34 -13.5t29 -5.5q23 0 34.5 12.5t22.5 38.5l67 -20q-17 -63 -42 -95t-72 -32z" />
    <glyph glyph-name="adieresis" unicode="&#xe4;" horiz-adv-x="617" 
d="M243 -11q-39 0 -74.5 11t-62.5 32.5t-43 53t-16 72.5v2q0 44 16.5 77t46.5 55t72 33t92 11q47 0 82.5 -6t67.5 -17v14q0 60 -35.5 91.5t-103.5 31.5q-47 0 -83.5 -9t-74.5 -25l-32 94q45 20 93 32.5t113 12.5q61 0 106.5 -16t74.5 -45q30 -29 44 -71.5t14 -96.5v-326
h-117v70q-28 -34 -72 -57.5t-108 -23.5zM275 77q32 0 59.5 9t48 24.5t32 37.5t11.5 49v40q-25 9 -57.5 15.5t-71.5 6.5q-63 0 -97.5 -25t-34.5 -69v-2q0 -42 32 -64t78 -22zM348 739h124v-120h-124v120zM148 739h124v-120h-124v120z" />
    <glyph glyph-name="aring" unicode="&#xe5;" horiz-adv-x="617" 
d="M243 -11q-39 0 -74.5 11t-62.5 32.5t-43 53t-16 72.5v2q0 44 16.5 77t46.5 55t72 33t92 11q47 0 82.5 -6t67.5 -17v14q0 60 -35.5 91.5t-103.5 31.5q-47 0 -83.5 -9t-74.5 -25l-32 94q45 20 93 32.5t113 12.5q61 0 106.5 -16t74.5 -45q30 -29 44 -71.5t14 -96.5v-326
h-117v70q-28 -34 -72 -57.5t-108 -23.5zM275 77q32 0 59.5 9t48 24.5t32 37.5t11.5 49v40q-25 9 -57.5 15.5t-71.5 6.5q-63 0 -97.5 -25t-34.5 -69v-2q0 -42 32 -64t78 -22zM310 617q-25 0 -46.5 9t-38 24.5t-26 36.5t-9.5 45t9.5 45t26 37t38 25t46.5 9t46.5 -9t38 -25
t26 -37t9.5 -45t-9.5 -45t-26 -36.5t-38 -24.5t-46.5 -9zM310 662q29 0 49.5 20.5t20.5 49.5t-20.5 49.5t-49.5 20.5t-49.5 -20.5t-20.5 -49.5t20.5 -49.5t49.5 -20.5z" />
    <glyph glyph-name="ae" unicode="&#xe6;" horiz-adv-x="998" 
d="M253 -11q-42 0 -79.5 11t-65.5 32.5t-44.5 53t-16.5 72.5v2q0 44 16.5 77t46.5 55t71 33t91 11q46 0 80.5 -6t66.5 -17v14q0 60 -35 91.5t-101 31.5q-46 0 -82 -9t-74 -25l-32 94q45 20 92 32.5t112 12.5q143 0 193 -93q33 45 82.5 71t112.5 26t111.5 -23.5t81.5 -64
t49.5 -94t16.5 -112.5q0 -8 -0.5 -16.5t-1.5 -17.5h-406q10 -70 54.5 -107t106.5 -37q48 0 83.5 17t68.5 49l71 -63q-40 -47 -94.5 -74.5t-130.5 -27.5q-65 0 -120 25t-93 70q-45 -40 -102 -67t-129 -27zM826 311q-3 31 -13.5 58.5t-28.5 47.5t-43.5 31.5t-57.5 11.5
q-60 0 -99 -41.5t-48 -107.5h290zM273 78q47 0 89 19.5t78 53.5q-17 41 -21 87q-25 8 -56 14.5t-67 6.5q-63 0 -97 -25t-34 -69v-2q0 -20 8.5 -35.5t23.5 -26.5t34.5 -17t41.5 -6z" />
    <glyph glyph-name="ae" unicode="&#x1fd;" horiz-adv-x="998" 
d="M253 -11q-42 0 -79.5 11t-65.5 32.5t-44.5 53t-16.5 72.5v2q0 44 16.5 77t46.5 55t71 33t91 11q46 0 80.5 -6t66.5 -17v14q0 60 -35 91.5t-101 31.5q-46 0 -82 -9t-74 -25l-32 94q45 20 92 32.5t112 12.5q143 0 193 -93q33 45 82.5 71t112.5 26t111.5 -23.5t81.5 -64
t49.5 -94t16.5 -112.5q0 -8 -0.5 -16.5t-1.5 -17.5h-406q10 -70 54.5 -107t106.5 -37q48 0 83.5 17t68.5 49l71 -63q-40 -47 -94.5 -74.5t-130.5 -27.5q-65 0 -120 25t-93 70q-45 -40 -102 -67t-129 -27zM826 311q-3 31 -13.5 58.5t-28.5 47.5t-43.5 31.5t-57.5 11.5
q-60 0 -99 -41.5t-48 -107.5h290zM273 78q47 0 89 19.5t78 53.5q-17 41 -21 87q-25 8 -56 14.5t-67 6.5q-63 0 -97 -25t-34 -69v-2q0 -20 8.5 -35.5t23.5 -26.5t34.5 -17t41.5 -6z" />
    <glyph glyph-name="ccedilla" unicode="&#xe7;" horiz-adv-x="602" 
d="M184 -126l83 123q-47 11 -86.5 37t-67.5 62t-43.5 80.5t-15.5 94.5v2q0 58 21.5 110t59 91t89.5 62t114 23q77 0 129 -26.5t90 -68.5l-76 -81q-29 31 -62.5 51t-81.5 20q-35 0 -65 -14t-52 -38.5t-34 -57t-12 -69.5v-2q0 -38 12.5 -70.5t35 -57t53.5 -38.5t68 -14
q45 0 79.5 19t65.5 50l73 -71q-38 -42 -85.5 -70t-117.5 -32l-68 -160z" />
    <glyph glyph-name="egrave" unicode="&#xe8;" horiz-adv-x="635" 
d="M334 -12q-59 0 -110.5 20.5t-89 58t-59 90t-21.5 115.5v2q0 59 20 111t55 90.5t84 61t108 22.5q65 0 114 -23.5t81.5 -64t49 -94t16.5 -112.5v-16q0 -9 -1 -18h-406q10 -70 54 -107t107 -37q48 0 83.5 17t67.5 49l72 -63q-40 -47 -94.5 -74.5t-130.5 -27.5zM463 311
q-3 31 -14 58.5t-29 47.5t-43 31.5t-57 11.5q-60 0 -99 -41.5t-48 -107.5h290zM150 737l110 50l107 -168h-91z" />
    <glyph glyph-name="eacute" unicode="&#xe9;" horiz-adv-x="635" 
d="M379 787l110 -50l-126 -118h-91zM334 -12q-59 0 -110.5 20.5t-89 58t-59 90t-21.5 115.5v2q0 59 20 111t55 90.5t84 61t108 22.5q65 0 114 -23.5t81.5 -64t49 -94t16.5 -112.5v-16q0 -9 -1 -18h-406q10 -70 54 -107t107 -37q48 0 83.5 17t67.5 49l72 -63
q-40 -47 -94.5 -74.5t-130.5 -27.5zM463 311q-3 31 -14 58.5t-29 47.5t-43 31.5t-57 11.5q-60 0 -99 -41.5t-48 -107.5h290z" />
    <glyph glyph-name="ecircumflex" unicode="&#xea;" horiz-adv-x="635" 
d="M263 769h112l120 -150h-97l-80 69l-80 -69h-94zM334 -12q-59 0 -110.5 20.5t-89 58t-59 90t-21.5 115.5v2q0 59 20 111t55 90.5t84 61t108 22.5q65 0 114 -23.5t81.5 -64t49 -94t16.5 -112.5v-16q0 -9 -1 -18h-406q10 -70 54 -107t107 -37q48 0 83.5 17t67.5 49l72 -63
q-40 -47 -94.5 -74.5t-130.5 -27.5zM463 311q-3 31 -14 58.5t-29 47.5t-43 31.5t-57 11.5q-60 0 -99 -41.5t-48 -107.5h290z" />
    <glyph glyph-name="edieresis" unicode="&#xeb;" horiz-adv-x="635" 
d="M357 739h124v-120h-124v120zM157 739h124v-120h-124v120zM334 -12q-59 0 -110.5 20.5t-89 58t-59 90t-21.5 115.5v2q0 59 20 111t55 90.5t84 61t108 22.5q65 0 114 -23.5t81.5 -64t49 -94t16.5 -112.5v-16q0 -9 -1 -18h-406q10 -70 54 -107t107 -37q48 0 83.5 17t67.5 49
l72 -63q-40 -47 -94.5 -74.5t-130.5 -27.5zM463 311q-3 31 -14 58.5t-29 47.5t-43 31.5t-57 11.5q-60 0 -99 -41.5t-48 -107.5h290z" />
    <glyph glyph-name="igrave" unicode="&#xec;" horiz-adv-x="303" 
d="M91 548h121v-548h-121v548zM-17 737l110 50l107 -168h-91z" />
    <glyph glyph-name="iacute" unicode="&#xed;" horiz-adv-x="303" 
d="M211 787l110 -50l-126 -118h-91zM91 548h121v-548h-121v548z" />
    <glyph glyph-name="icircumflex" unicode="&#xee;" horiz-adv-x="303" 
d="M96 769h112l120 -150h-97l-80 69l-80 -69h-94zM91 548h121v-548h-121v548z" />
    <glyph glyph-name="idieresis" unicode="&#xef;" horiz-adv-x="303" 
d="M190 739h124v-120h-124v120zM-10 739h124v-120h-124v120zM91 548h121v-548h-121v548z" />
    <glyph glyph-name="eth" unicode="&#xf0;" horiz-adv-x="690" 
d="M457 668q38 -38 70.5 -80.5t56.5 -88.5t37.5 -95.5t13.5 -103.5v-2q0 -65 -20.5 -121.5t-58.5 -98.5t-92 -66t-122 -24q-62 0 -114.5 22.5t-91 61.5t-60.5 91.5t-22 113.5v2q0 58 20 107t54 85t79.5 56t96.5 20t87.5 -16t68.5 -39q-20 34 -49.5 69.5t-65.5 70.5l-124 -40
l-26 67l89 28q-23 19 -46 37t-46 35h164l42 -35l118 38l25 -67zM346 93q38 0 69.5 13.5t53.5 37.5t34 56.5t12 69.5v2q0 36 -12.5 68t-35.5 56t-55 37.5t-71 13.5t-69.5 -13.5t-52.5 -37t-33.5 -55.5t-11.5 -68v-2q0 -36 13 -68.5t35.5 -57t54 -38.5t69.5 -14z" />
    <glyph glyph-name="ntilde" unicode="&#xf1;" horiz-adv-x="652" 
d="M84 548h120v-86q13 19 30 37t38 31t47.5 21t58.5 8q93 0 145 -57.5t52 -153.5v-348h-121v312q0 66 -31.5 101.5t-89.5 35.5q-57 0 -93 -36.5t-36 -102.5v-310h-120v548zM412 619q-23 0 -44 7t-41 15q-18 8 -34 13.5t-29 5.5q-23 0 -34.5 -12.5t-22.5 -38.5l-67 20
q17 63 42 95t72 32q23 0 44 -7t41 -15q18 -8 34 -13.5t29 -5.5q23 0 34.5 12.5t22.5 38.5l67 -20q-17 -63 -42 -95t-72 -32z" />
    <glyph glyph-name="ograve" unicode="&#xf2;" horiz-adv-x="690" 
d="M344 -12q-63 0 -116 22.5t-91.5 60.5t-60.5 89.5t-22 110.5v2q0 58 22 110t61 91t92.5 62t116.5 23t116 -22.5t91.5 -61t60.5 -90t22 -110.5v-2q0 -59 -22 -110.5t-61 -90.5t-92.5 -61.5t-116.5 -22.5zM346 93q39 0 70 14t53.5 38.5t34.5 57t12 68.5v2q0 37 -13 69.5
t-35.5 57.5t-54.5 39.5t-69 14.5q-39 0 -70 -14.5t-53.5 -39t-34.5 -57t-12 -68.5v-2q0 -37 13 -69.5t35.5 -57t54 -39t69.5 -14.5zM176 737l110 50l107 -168h-91z" />
    <glyph glyph-name="oacute" unicode="&#xf3;" horiz-adv-x="690" 
d="M404 787l110 -50l-126 -118h-91zM344 -12q-63 0 -116 22.5t-91.5 60.5t-60.5 89.5t-22 110.5v2q0 58 22 110t61 91t92.5 62t116.5 23t116 -22.5t91.5 -61t60.5 -90t22 -110.5v-2q0 -59 -22 -110.5t-61 -90.5t-92.5 -61.5t-116.5 -22.5zM346 93q39 0 70 14t53.5 38.5
t34.5 57t12 68.5v2q0 37 -13 69.5t-35.5 57.5t-54.5 39.5t-69 14.5q-39 0 -70 -14.5t-53.5 -39t-34.5 -57t-12 -68.5v-2q0 -37 13 -69.5t35.5 -57t54 -39t69.5 -14.5z" />
    <glyph glyph-name="ocircumflex" unicode="&#xf4;" horiz-adv-x="690" 
d="M289 769h112l120 -150h-97l-80 69l-80 -69h-94zM344 -12q-63 0 -116 22.5t-91.5 60.5t-60.5 89.5t-22 110.5v2q0 58 22 110t61 91t92.5 62t116.5 23t116 -22.5t91.5 -61t60.5 -90t22 -110.5v-2q0 -59 -22 -110.5t-61 -90.5t-92.5 -61.5t-116.5 -22.5zM346 93q39 0 70 14
t53.5 38.5t34.5 57t12 68.5v2q0 37 -13 69.5t-35.5 57.5t-54.5 39.5t-69 14.5q-39 0 -70 -14.5t-53.5 -39t-34.5 -57t-12 -68.5v-2q0 -37 13 -69.5t35.5 -57t54 -39t69.5 -14.5z" />
    <glyph glyph-name="otilde" unicode="&#xf5;" horiz-adv-x="690" 
d="M344 -12q-63 0 -116 22.5t-91.5 60.5t-60.5 89.5t-22 110.5v2q0 58 22 110t61 91t92.5 62t116.5 23t116 -22.5t91.5 -61t60.5 -90t22 -110.5v-2q0 -59 -22 -110.5t-61 -90.5t-92.5 -61.5t-116.5 -22.5zM346 93q39 0 70 14t53.5 38.5t34.5 57t12 68.5v2q0 37 -13 69.5
t-35.5 57.5t-54.5 39.5t-69 14.5q-39 0 -70 -14.5t-53.5 -39t-34.5 -57t-12 -68.5v-2q0 -37 13 -69.5t35.5 -57t54 -39t69.5 -14.5zM428 619q-23 0 -44 7t-41 15q-18 8 -34 13.5t-29 5.5q-23 0 -34.5 -12.5t-22.5 -38.5l-67 20q17 63 42 95t72 32q23 0 44 -7t41 -15
q18 -8 34 -13.5t29 -5.5q23 0 34.5 12.5t22.5 38.5l67 -20q-17 -63 -42 -95t-72 -32z" />
    <glyph glyph-name="odieresis" unicode="&#xf6;" horiz-adv-x="690" 
d="M383 739h124v-120h-124v120zM183 739h124v-120h-124v120zM344 -12q-63 0 -116 22.5t-91.5 60.5t-60.5 89.5t-22 110.5v2q0 58 22 110t61 91t92.5 62t116.5 23t116 -22.5t91.5 -61t60.5 -90t22 -110.5v-2q0 -59 -22 -110.5t-61 -90.5t-92.5 -61.5t-116.5 -22.5zM346 93
q39 0 70 14t53.5 38.5t34.5 57t12 68.5v2q0 37 -13 69.5t-35.5 57.5t-54.5 39.5t-69 14.5q-39 0 -70 -14.5t-53.5 -39t-34.5 -57t-12 -68.5v-2q0 -37 13 -69.5t35.5 -57t54 -39t69.5 -14.5z" />
    <glyph glyph-name="oslash" unicode="&#xf8;" horiz-adv-x="690" 
d="M652 554l-84 -94q32 -37 50 -84t18 -101v-2q0 -59 -22 -110.5t-61 -90.5t-92.5 -61.5t-116.5 -22.5q-45 0 -85.5 11.5t-74.5 32.5l-35 -37h-111l83 92q-32 38 -49.5 84.5t-17.5 99.5v2q0 58 22 110t61 91t92.5 62t116.5 23q45 0 85 -12t74 -33l36 40h111zM346 90
q39 0 71 14.5t54.5 39t35 57.5t12.5 70v2q0 56 -29 102l-234 -261q20 -11 42 -17.5t48 -6.5zM171 274q0 -57 28 -102l235 259q-20 12 -42.5 19t-47.5 7q-39 0 -71 -14.5t-54.5 -39.5t-35 -58t-12.5 -70v-1z" />
    <glyph glyph-name="ugrave" unicode="&#xf9;" horiz-adv-x="652" 
d="M275 -11q-94 0 -146 57.5t-52 153.5v348h121v-312q0 -66 32 -101.5t89 -35.5t93 36.5t36 102.5v310h120v-548h-120v86q-27 -39 -68 -68t-105 -29zM153 737l110 50l107 -168h-91z" />
    <glyph glyph-name="uacute" unicode="&#xfa;" horiz-adv-x="652" 
d="M382 787l110 -50l-126 -118h-91zM275 -11q-94 0 -146 57.5t-52 153.5v348h121v-312q0 -66 32 -101.5t89 -35.5t93 36.5t36 102.5v310h120v-548h-120v86q-27 -39 -68 -68t-105 -29z" />
    <glyph glyph-name="ucircumflex" unicode="&#xfb;" horiz-adv-x="652" 
d="M266 769h112l120 -150h-97l-80 69l-80 -69h-94zM275 -11q-94 0 -146 57.5t-52 153.5v348h121v-312q0 -66 32 -101.5t89 -35.5t93 36.5t36 102.5v310h120v-548h-120v86q-27 -39 -68 -68t-105 -29z" />
    <glyph glyph-name="udieresis" unicode="&#xfc;" horiz-adv-x="652" 
d="M360 739h124v-120h-124v120zM160 739h124v-120h-124v120zM275 -11q-94 0 -146 57.5t-52 153.5v348h121v-312q0 -66 32 -101.5t89 -35.5t93 36.5t36 102.5v310h120v-548h-120v86q-27 -39 -68 -68t-105 -29z" />
    <glyph glyph-name="yacute" unicode="&#xfd;" horiz-adv-x="628" 
d="M467 548h126l-219 -563q-17 -42 -34.5 -71.5t-39.5 -48t-48 -27t-59 -8.5q-38 0 -68.5 8.5t-59.5 24.5l41 91q17 -10 36 -16t39 -6q28 0 46.5 15t35.5 53l-231 548h129l160 -413zM374 787l110 -50l-126 -118h-91z" />
    <glyph glyph-name="thorn" unicode="&#xfe;" horiz-adv-x="705" 
d="M84 759h120v-305q31 44 76.5 74.5t113.5 30.5q48 0 94 -19t82 -55t57.5 -89t21.5 -121v-2q0 -68 -21.5 -121t-57 -89t-81.5 -55t-95 -19q-69 0 -114.5 29.5t-75.5 68.5v-253h-120v925zM366 93q33 0 62.5 12.5t51 36t34.5 56.5t13 75v2q0 41 -13 74t-35 56.5t-51 36.5
t-62 13t-62.5 -13t-52 -36.5t-36 -57t-13.5 -73.5v-2q0 -41 13.5 -74t36 -56.5t52 -36.5t62.5 -13z" />
    <glyph glyph-name="ydieresis" unicode="&#xff;" horiz-adv-x="628" 
d="M467 548h126l-219 -563q-17 -42 -34.5 -71.5t-39.5 -48t-48 -27t-59 -8.5q-38 0 -68.5 8.5t-59.5 24.5l41 91q17 -10 36 -16t39 -6q28 0 46.5 15t35.5 53l-231 548h129l160 -413zM353 739h124v-120h-124v120zM153 739h124v-120h-124v120z" />
    <glyph glyph-name="dotlessi" unicode="&#x131;" horiz-adv-x="303" 
d="M91 548h121v-548h-121v548z" />
    <glyph glyph-name="Lslash" unicode="&#x141;" horiz-adv-x="681" 
d="M251 326v-214h387v-112h-508v272l-78 -35v116l78 35v340h121v-285l170 77v-117z" />
    <glyph glyph-name="lslash" unicode="&#x142;" horiz-adv-x="365" 
d="M242 358v-358h-119v297l-79 -40v116l79 40v346h119v-285l79 41v-116z" />
    <glyph glyph-name="OE" unicode="&#x152;" horiz-adv-x="1154" 
d="M453 0q-86 0 -157 27.5t-122 76.5t-79.5 115t-28.5 143v2q0 77 28.5 143.5t79.5 115.5t122 77t157 28h633v-110h-393v-196h346v-110h-346v-202h398v-110h-638zM570 111v506h-117q-59 0 -106.5 -19t-81 -52.5t-52 -79.5t-18.5 -100v-2q0 -54 18.5 -100.5t52 -80t81 -53
t106.5 -19.5h117z" />
    <glyph glyph-name="oe" unicode="&#x153;" horiz-adv-x="1090" 
d="M337 -12q-59 0 -110.5 22.5t-90 60.5t-60.5 89.5t-22 110.5v2q0 58 22 110t61 91t91.5 62t113.5 23q72 0 129.5 -32t92.5 -85q34 54 88.5 85.5t123.5 31.5q65 0 114 -23.5t82 -64t49.5 -94t16.5 -112.5q0 -8 -0.5 -16.5t-1.5 -17.5h-406q10 -70 54.5 -107t106.5 -37
q48 0 83.5 17t68.5 49l71 -63q-40 -47 -94.5 -74.5t-129.5 -27.5q-72 0 -131.5 31t-95.5 87q-36 -54 -94.5 -86t-131.5 -32zM918 311q-3 31 -13.5 58.5t-28.5 47.5t-43.5 31.5t-57.5 11.5q-59 0 -98.5 -41.5t-47.5 -107.5h289zM343 93q37 0 68 14t52.5 38.5t33.5 57t12 68.5
v2q0 37 -12.5 69.5t-35 57.5t-53.5 39.5t-68 14.5q-38 0 -68.5 -14.5t-52 -39t-33.5 -57t-12 -68.5v-2q0 -37 12.5 -69.5t35 -57t53.5 -39t68 -14.5z" />
    <glyph glyph-name="Scaron" unicode="&#x160;" horiz-adv-x="674" 
d="M353 -10q-85 0 -161 28.5t-142 87.5l74 88q53 -46 108 -70.5t124 -24.5q61 0 97 26t36 69v2q0 20 -7 35.5t-25.5 29t-51 25.5t-83.5 24q-59 14 -104.5 31t-76 41.5t-46.5 59.5t-16 85v2q0 46 18.5 84.5t51 66t78 43t99.5 15.5q81 0 144.5 -23t119.5 -68l-67 -93
q-98 75 -199 75q-58 0 -90.5 -25.5t-32.5 -63.5v-2q0 -22 7.5 -38.5t27.5 -30t54 -25.5t88 -24q58 -14 101.5 -32t73 -43t44 -58.5t14.5 -78.5v-2q0 -51 -19 -91t-53.5 -67.5t-81.5 -42.5t-104 -15zM399 799h-114l-124 138h102l80 -60l80 60h100z" />
    <glyph glyph-name="scaron" unicode="&#x161;" 
d="M323 619h-112l-119 150h96l80 -69l80 69h95zM271 -10q-59 0 -120 20t-112 61l55 82q45 -33 91 -50.5t90 -17.5q42 0 65 17t23 46v2q0 16 -10 28t-27.5 20.5t-40 15.5t-46.5 15q-30 9 -61 20.5t-55.5 29.5t-40 44.5t-15.5 65.5v2q0 39 15 69.5t41 52t61 33t76 11.5
q52 0 105 -16.5t96 -45.5l-48 -86q-40 24 -80 38t-75 14q-38 0 -59 -16t-21 -41v-2q0 -15 10 -26.5t27.5 -20.5t40 -17t47.5 -16q30 -9 60.5 -21.5t55 -30.5t40 -44t15.5 -63v-2q0 -43 -15.5 -75t-43 -53.5t-64.5 -32t-80 -10.5z" />
    <glyph glyph-name="Ydieresis" unicode="&#x178;" horiz-adv-x="753" 
d="M315 287l-291 441h145l208 -327l211 327h141l-291 -438v-290h-123v287zM420 901h125v-113h-125v113zM208 901h126v-113h-126v113z" />
    <glyph glyph-name="Zcaron" unicode="&#x17d;" horiz-adv-x="737" 
d="M433 789h-114l-124 138h102l80 -60l80 60h100zM71 90l435 530h-420v108h581v-90l-435 -530h435v-108h-596v90z" />
    <glyph glyph-name="zcaron" unicode="&#x17e;" horiz-adv-x="590" 
d="M354 619h-112l-119 150h96l80 -69l80 69h95zM59 83l321 366h-310v99h464v-83l-321 -366h321v-99h-475v83z" />
    <glyph glyph-name="circumflex" unicode="&#x2c6;" 
d="M208 769h112l120 -150h-97l-80 69l-80 -69h-94z" />
    <glyph glyph-name="caron" unicode="&#x2c7;" 
d="M320 619h-112l-119 150h96l80 -69l80 69h95z" />
    <glyph glyph-name="breve" unicode="&#x2d8;" 
d="M264 617q-75 0 -122.5 38.5t-52.5 109.5h83q9 -29 30.5 -46.5t61.5 -17.5t61.5 17.5t30.5 46.5h84q-6 -71 -53.5 -109.5t-122.5 -38.5z" />
    <glyph glyph-name="dotaccent" unicode="&#x2d9;" 
d="M200 740h128v-121h-128v121z" />
    <glyph glyph-name="ring" unicode="&#x2da;" 
d="M264 617q-25 0 -46.5 9t-38 24.5t-26 36.5t-9.5 45t9.5 45t26 37t38 25t46.5 9t46.5 -9t38 -25t26 -37t9.5 -45t-9.5 -45t-26 -36.5t-38 -24.5t-46.5 -9zM264 662q29 0 49.5 20.5t20.5 49.5t-20.5 49.5t-49.5 20.5t-49.5 -20.5t-20.5 -49.5t20.5 -49.5t49.5 -20.5z" />
    <glyph glyph-name="ogonek" unicode="&#x2db;" 
d="M362 -171q-8 -1 -16 -1.5t-15 -0.5q-67 2 -101.5 26t-34.5 62q0 26 14.5 49.5t40.5 48.5l81 -6q-24 -22 -34 -39.5t-10 -34.5q0 -45 75 -45v-59z" />
    <glyph glyph-name="tilde" unicode="&#x2dc;" 
d="M343 619q-23 0 -44 7t-41 15q-18 8 -34 13.5t-29 5.5q-23 0 -34.5 -12.5t-22.5 -38.5l-67 20q17 63 42 95t72 32q23 0 44 -7t41 -15q18 -8 34 -13.5t29 -5.5q23 0 34.5 12.5t22.5 38.5l67 -20q-17 -63 -42 -95t-72 -32z" />
    <glyph glyph-name="hungarumlaut" unicode="&#x2dd;" 
d="M355 787l107 -49l-126 -119h-88zM179 787l107 -49l-125 -119h-88z" />
    <glyph glyph-name="endash" unicode="&#x2013;" horiz-adv-x="557" 
d="M63 375h431v-115h-431v115z" />
    <glyph glyph-name="emdash" unicode="&#x2014;" horiz-adv-x="942" 
d="M63 375h816v-115h-816v115z" />
    <glyph glyph-name="quoteleft" unicode="&#x2018;" horiz-adv-x="285" 
d="M71 564q0 84 39 122.5t116 46.5l13 -51q-93 -19 -87 -97h52v-139h-133v118z" />
    <glyph glyph-name="quoteright" unicode="&#x2019;" horiz-adv-x="285" 
d="M46 492q93 19 87 97h-52v139h133v-118q0 -84 -39 -123.5t-116 -46.5z" />
    <glyph glyph-name="quotesinglbase" unicode="&#x201a;" horiz-adv-x="285" 
d="M41 -97q93 19 87 97h-52v139h133v-118q0 -84 -39.5 -123t-115.5 -46z" />
    <glyph glyph-name="quotedblleft" unicode="&#x201c;" horiz-adv-x="522" 
d="M308 564q0 84 39 122.5t116 46.5l13 -51q-93 -20 -86 -97h51v-139h-133v118zM71 564q0 84 39 122.5t116 46.5l13 -51q-93 -19 -87 -97h52v-139h-133v118z" />
    <glyph glyph-name="quotedblright" unicode="&#x201d;" horiz-adv-x="522" 
d="M283 492q93 19 87 97h-52v139h134v-118q0 -84 -39.5 -123.5t-116.5 -46.5zM46 492q93 19 87 97h-52v139h133v-118q0 -84 -39 -123.5t-116 -46.5z" />
    <glyph glyph-name="quotedblbase" unicode="&#x201e;" horiz-adv-x="522" 
d="M278 -97q93 19 87 97h-52v139h134v-118q0 -84 -39.5 -123t-116.5 -46zM41 -97q93 19 87 97h-52v139h133v-118q0 -84 -39.5 -123t-115.5 -46z" />
    <glyph glyph-name="bullet" unicode="&#x2022;" horiz-adv-x="517" 
d="M259 220q-30 0 -57 11.5t-46.5 31t-31 46t-11.5 56.5v2q0 30 11.5 56.5t31.5 46t46.5 31t56.5 11.5q29 0 55.5 -11.5t46.5 -31t31.5 -46t11.5 -56.5v-2q0 -30 -11.5 -56.5t-31 -46t-46 -31t-56.5 -11.5z" />
    <glyph glyph-name="ellipsis" unicode="&#x2026;" horiz-adv-x="823" 
d="M617 136h131v-136h-131v136zM347 136h130v-136h-130v136zM76 136h130v-136h-130v136z" />
    <glyph glyph-name="guilsinglleft" unicode="&#x2039;" horiz-adv-x="373" 
d="M50 270v8l179 226l85 -44l-131 -185l131 -186l-85 -45z" />
    <glyph glyph-name="guilsinglright" unicode="&#x203a;" horiz-adv-x="373" 
d="M59 88l131 185l-131 186l86 45l178 -226v-8l-178 -226z" />
    <glyph glyph-name="Euro" unicode="&#x20ac;" horiz-adv-x="757" 
d="M611 534q-34 48 -70.5 72.5t-92.5 24.5q-58 0 -100.5 -36t-65.5 -97h230v-86h-248q-2 -11 -2 -24v-23v-1v-21q0 -10 1 -21h249v-86h-232q22 -65 67.5 -102.5t108.5 -36.5q53 0 90 27t72 75l88 -64q-44 -65 -103.5 -106t-147.5 -41q-57 0 -106 18t-87.5 50.5t-66 78
t-42.5 101.5h-94v86h80q-1 10 -1 20v21v1v24q0 12 2 24h-81v86h97q15 52 42.5 97t65 77t84.5 50t103 18q47 0 85 -10.5t68.5 -28.5t54.5 -43t45 -55z" />
    <glyph glyph-name="trademark" unicode="&#x2122;" horiz-adv-x="726" 
d="M358 728h64l98 -154l99 154h62v-320h-58v230l-101 -156h-5l-101 156v-230h-58v320zM130 674h-99v54h258v-54h-99v-266h-60v266z" />
    <glyph glyph-name="acute.cap" 
d="M285 938l110 -49l-131 -100h-94z" />
    <glyph glyph-name="hungarumlaut.cap" 
d="M181 938l107 -49l-131 -100h-91zM361 938l106 -49l-131 -100h-91z" />
    <glyph glyph-name="grave.cap" 
d="M262 789l-131 100l110 49l116 -149h-95z" />
    <glyph glyph-name="circumflex.cap" 
d="M207 927h114l124 -138h-102l-80 60l-80 -60h-100z" />
    <glyph glyph-name="caron.cap" 
d="M321 789h-114l-124 138h102l80 -60l80 60h100z" />
    <glyph glyph-name="breve.cap" 
d="M264 787q-75 0 -123 35.5t-54 101.5h86q10 -25 31 -38.5t60 -13.5t60 13.5t31 38.5h86q-6 -66 -54 -101.5t-123 -35.5z" />
    <glyph glyph-name="tilde.cap" 
d="M345 789q-23 0 -46 7.5t-45 15.5q-17 7 -32.5 12t-27.5 5q-23 0 -35 -12t-23 -38l-68 20q17 60 42.5 93t72.5 33q23 0 46 -7.5t45 -16.5q17 -7 32.5 -12t27.5 -5q23 0 34.5 12t22.5 38l68 -20q-17 -60 -42.5 -92.5t-71.5 -32.5z" />
    <glyph glyph-name="macron.cap" 
d="M79 892h370v-90h-370v90z" />
    <glyph glyph-name="dieresis.cap" 
d="M307 902h125v-113h-125v113zM95 902h126v-113h-126v113z" />
    <glyph glyph-name="dotaccent.cap" 
d="M199 902h130v-113h-130v113z" />
    <glyph glyph-name="ring.cap" 
d="M264 787q-25 0 -47 8t-38.5 22.5t-26.5 34.5t-10 44t10 44t26.5 34.5t38.5 22.5t47 8t47 -8t38.5 -22.5t26.5 -34.5t10 -44t-10 -44t-26.5 -34.5t-38.5 -22.5t-47 -8zM264 835q30 0 48.5 17.5t18.5 43.5t-18.5 43t-48.5 17t-48.5 -17t-18.5 -43t18.5 -43.5t48.5 -17.5z
" />
    <glyph glyph-name="hcoslug" horiz-adv-x="694" 
d="M273 18q2 22 -19 22q-9 0 -14.5 -5.5t-5.5 -15.5q1 -20 21 -20q15 0 18 14h-7q-2 -7 -9 -7q-10 0 -10 12h26zM254 35q7 0 7 -12h-14q0 12 7 12zM195 78q-8 0 -8 16q0 15 8 15t8 -15q0 -16 -8 -16zM210 4q-8 0 -8 16q0 15 8 15t8 -15q0 -16 -8 -16zM210 -1q9 0 15 6t6 15
t-6 14.5t-15 5.5t-15 -5.5t-6 -14.5q0 -10 6 -15.5t15 -5.5zM546 4q-8 0 -8 16q0 15 8 15t8 -15q0 -16 -8 -16zM546 -1q9 0 15 6t6 15t-6 14.5t-15 5.5t-15 -5.5t-6 -14.5q0 -10 6 -15.5t15 -5.5zM125 74h30v7h-10v16h4q5 0 6 -8h7v23h-7q-1 -8 -6 -8h-4v18h12q5 0 7 -2.5
t4 -10.5h8v20h-51v-7h7v-41h-7v-7zM195 73q9 0 15 6t6 15t-6 14.5t-15 5.5t-15 -5.5t-6 -14.5q0 -10 6 -15.5t15 -5.5zM644 -100h-594v800h594v-800zM498 -1q22 0 24 23h-8q-2 -16 -14 -16q-16 0 -16 22t14 22q10 0 15 -16h8v22h-8l-1 -6q-7 7 -16 7q-11 0 -19 -8t-8 -22
q0 -28 29 -28zM372 80q-8 0 -8 13t8 13q7 0 7 -13t-7 -13zM276 0h23v7h-5v25h14v-25h-5v-7h23v7h-6v52l-10 -2q-4 2 -9 2q-8 0 -13.5 -4.5t-5.5 -14.5v-1h-7v-7h7v-25h-6v-7zM368 0h26v7h-8v16q4 9 7 9v-1q0 -6 6 -6q7 0 7 7q0 8 -8 8t-12 -11v10h-18v-7h6v-25h-6v-7z
M352 73h6l4 8q5 -8 14 -8t12.5 7t3.5 14q0 20 -15 20q-10 0 -13 -9v27h-18v-7h6v-52zM400 75q-7 0 -7 -7q0 -9 11 -9q12 0 18 16l13 31h5v7h-17v-7h5l-8 -20l-9 20h6v7h-25v-7h5q2 -5 6 -13l6 -11l4 -9q-2 -8 -8 -8q2 2 1 6t-6 4zM247 428q0 13 7.5 21t19.5 8q13 0 21 -10.5
t8 -27.5q0 -13 -5 -25t-13 -25q-17 17 -27.5 29.5t-10.5 29.5zM302 74h7l1 4q2 -2 5 -3.5t8 -1.5q14 0 14 13q0 6 -4 8.5t-8.5 3.5t-8 2t-3.5 4q0 4 5 4t10 -7h7v13h-6l-2 -5q-3 5 -11 5q-7 0 -10.5 -3.5t-3.5 -8.5q0 -6 3.5 -8.5t8 -4t8.5 -2.5t4 -4q0 -4 -5 -4q-6 0 -12 9
h-7v-14zM261 219q-23 0 -37.5 15.5t-14.5 38.5q0 24 16 40q14 -13 33.5 -34.5t40.5 -47.5q-15 -12 -38 -12zM274 122v-9h-7v-7h7v-20q0 -13 12 -13q11 0 14 13l-5 2q-1 -7 -5 -7t-4 5v20h13v7h-13v11zM428 306q7 -11 18 -18t25 -7q21 0 35.5 15.5t14.5 38.5t-14.5 37.5
t-35.5 14.5q-35 0 -60 -38q-2 20 -15.5 29t-33.5 8q9 15 9 34q0 13 -6 26.5t-18 24t-30 17t-41 6.5q-25 0 -45 -7t-34.5 -19t-22 -27.5t-7.5 -31.5q0 -22 7.5 -37t23.5 -32q-82 -28 -82 -91q0 -20 8.5 -37t23.5 -29.5t34.5 -19.5t42.5 -7q63 0 104 45q25 -26 43.5 -35.5
t41.5 -9.5q32 0 55 25t25 69l-7 2q-8 -13 -17.5 -21t-25.5 -8q-15 0 -29 9.5t-33 31.5q11 15 23 25t23 17zM219 74h22v7h-4v15q0 10 7 10q6 0 6 -7v-18h-4v-7h22v7h-6v19q0 14 -12 14q-9 0 -14 -11v10h-17v-7h6v-25h-6v-7zM446 33v-7h6q-2 -5 -6 -9q-3 3 -5.5 6t-6.5 7
q11 5 11 12q0 5 -3.5 8.5t-10.5 3.5q-8 0 -12.5 -4t-4.5 -10t6 -12q-13 -4 -13 -15q0 -14 18 -14q9 0 15 6q5 -6 12 -6q10 0 13 12l-5 1q-1 -5 -4 -5t-6 5q3 3 5 6t4 8h5v7h-18zM429 6q-10 0 -10 10q0 5 4 9q4 -4 7 -7.5t7 -8.5q-4 -3 -8 -3zM294 42q0 7 1.5 9.5t4.5 2.5
q2 0 3 -1q-1 -2 -1 -4q0 -5 6 -5v-5h-14v3zM425 43q0 5 5 5q6 0 6 -6t-5 -9q-6 6 -6 10zM312 342q30 20 42 34q17 -17 15 -36t-16 -44q-10 11 -19.5 22.5t-21.5 23.5zM366 18q2 22 -19 22q-8 0 -14 -6t-6 -15q0 -20 21 -20q14 0 18 14h-7q-1 -7 -9 -7q-10 0 -10 12h26z
M347 35q7 0 7 -12h-14q0 12 7 12zM124 0h29v7h-8v18h22v-18h-8v-7h29v7h-8v41h8v7h-29v-7h8v-16h-22v16h8v7h-29v-7h8v-41h-8v-7zM576 13q-7 0 -7 -7t7 -7t7 7t-7 7z" />
    <glyph glyph-name="cedilla.cap" 
d="M143 -126l97 143h90l-81 -188z" />
    <glyph glyph-name="ogonek.cap" 
d="M362 -171q-8 -1 -16 -1.5t-15 -0.5q-67 2 -101.5 26t-34.5 62q0 26 14.5 49.5t40.5 48.5l81 -6q-24 -22 -34 -39.5t-10 -34.5q0 -45 75 -45v-59z" />
    <glyph glyph-name="commaaccent.cap" 
d="M187 -239q76 9 72 69h-55v103h120v-88q0 -63 -33 -92t-96 -32z" />
    <glyph glyph-name="caron.alt.cap" 
d="M228 807h96v-4l-58 -191h-51z" />
    <glyph glyph-name="tonos.cap.cap" 
d="M172 728h121l-71 -202h-64z" />
    </font>
</defs>
</svg>
